<?xml version="1.0" encoding="iso-8859-1"?>
<!-- Generator: Adobe Illustrator 16.0.4, SVG Export Plug-In . SVG Version: 6.00 Build 0)  -->
<!DOCTYPE svg PUBLIC "-//W3C//DTD SVG 1.1//EN" "http://www.w3.org/Graphics/SVG/1.1/DTD/svg11.dtd">
<svg version="1.1" id="Layer_1" xmlns="http://www.w3.org/2000/svg" xmlns:xlink="http://www.w3.org/1999/xlink" x="0px" y="0px"
	 width="158px" height="184.7px" viewBox="0 0 158 184.7" style="enable-background:new 0 0 158 184.7;" xml:space="preserve">
<g>
	<path style="fill:#FFFFFF;" d="M148.5,87.3c-1.2-0.8-2.4-1.4-3.7-2.1l-3.8-1.9c-1.3-0.6-2.5-1.3-3.8-1.9c-1.2-0.7-2.5-1.3-3.7-2.1
		c-0.6-0.4-1.2-0.7-1.8-1.1L130,77l-1.6-1.4c-0.5-0.5-1-1-1.5-1.5c-0.5-0.5-1-1.1-1.4-1.6c-0.4-0.6-0.9-1.1-1.3-1.7l-1.2-1.7
		c-0.4-0.6-0.7-1.2-1.1-1.8c-0.8-1.2-1.3-2.5-2-3.8c-0.3-0.6-0.5-1.3-0.8-2c-0.2-0.7-0.5-1.3-0.7-2c-0.4-1.4-0.8-2.8-1.1-4.1
		c-0.3-1.4-0.8-2.7-1.3-4c-0.3-0.6-0.6-1.3-0.9-1.9c-0.3-0.6-0.6-1.3-1-1.9c-0.7-1.2-1.4-2.5-2.1-3.6c-1.5-2.4-3.1-4.7-4.9-6.8l0,0
		c-0.1-0.1-0.2-0.2-0.4-0.4c0,0-0.1-0.1-0.1-0.1c0,0-0.1-0.1-0.1-0.1c0,0,0-0.1,0-0.2c0-0.1,0-0.1,0-0.1c0-0.1,0.1-0.2,0.2-0.3
		c0.2-0.1,0.2-0.1,0.3-0.1c0.1,0,0.2,0,0.2,0c0,0,0.1,0,0.1,0c0.1,0,0.1,0,0.2,0.1c0.3,0.2,0.6,0.3,0.9,0.5c0.5,0.3,1.1,0.7,1.6,1
		l-0.6,0.8c-0.4-0.3-0.8-0.7-1.2-1.1c-0.2-0.2-0.4-0.4-0.5-0.8c-0.1-0.2-0.1-0.5,0.1-0.8c0.2-0.3,0.4-0.4,0.6-0.5
		c0.4-0.1,0.6-0.2,0.9-0.2c0.3,0,0.6,0,0.8,0c0.5,0,1.1,0.1,1.6,0.2l-0.3,1.1c-0.7-0.2-1.4-0.5-2.1-0.8c-0.3-0.2-0.7-0.3-1-0.5
		c-0.2-0.1-0.3-0.2-0.5-0.3c-0.2-0.2-0.4-0.3-0.5-0.7c-0.1-0.2-0.1-0.5,0.1-0.7c0.1-0.2,0.3-0.3,0.4-0.4c0.2-0.1,0.4-0.2,0.6-0.3
		c0.4-0.1,0.8-0.2,1.2-0.2c0.8-0.1,1.5-0.1,2.2-0.1l-0.1,1.2l-1-0.2c-0.2,0-0.3-0.1-0.5-0.1c-0.2-0.1-0.3-0.1-0.5-0.2l-0.5-0.3
		c-0.2-0.1-0.3-0.3-0.5-0.4c-0.2-0.1-0.3-0.4-0.4-0.6c-0.1-0.2-0.1-0.5-0.1-0.7c0-0.2,0.1-0.4,0.1-0.6c0.1-0.2,0.2-0.4,0.3-0.5
		c0.2-0.3,0.4-0.6,0.6-0.9c0.5-0.5,1-1,1.5-1.4l0.2,1.1c-0.4-0.1-0.8-0.2-1.2-0.3c-0.2-0.1-0.4-0.2-0.6-0.3c-0.1,0-0.2-0.1-0.3-0.2
		c-0.1-0.1-0.2-0.2-0.3-0.3c-0.1-0.1-0.2-0.4-0.2-0.6c0-0.2,0-0.4,0.1-0.6c0.1-0.3,0.3-0.5,0.5-0.7c0.4-0.3,0.7-0.5,1.1-0.7l0.2,1.2
		c-0.3,0-0.7-0.1-1-0.1c-0.3-0.1-0.7-0.1-1-0.3c-0.3-0.1-0.7-0.3-1-0.4c-0.2-0.1-0.3-0.2-0.5-0.3s-0.3-0.2-0.4-0.3
		c-0.3-0.2-0.5-0.5-0.7-0.8c-0.2-0.3-0.4-0.6-0.5-0.9c-0.1-0.3-0.3-0.7-0.3-1c0-0.2-0.1-0.3-0.1-0.5c0-0.2,0-0.3-0.1-0.6l0.8,0.7
		l-1.1,0.1c-0.4,0-0.7,0-1.1-0.1l-0.6-0.1c-0.2-0.1-0.4-0.2-0.6-0.3c-0.2-0.1-0.3-0.2-0.5-0.4c-0.2-0.1-0.3-0.3-0.4-0.5
		c-0.1-0.2-0.2-0.3-0.3-0.5c-0.1-0.2-0.2-0.4-0.2-0.6c-0.1-0.4-0.2-0.8-0.2-1.1c0-0.4,0-0.7,0-1.1c0-0.4,0.1-0.7,0.2-1.1l1.2,0.7
		l-0.3,0.3c-0.1,0.1-0.2,0.2-0.3,0.3l-0.4,0.3c-0.1,0.1-0.4,0.2-0.5,0.2c-0.2,0.1-0.4,0.1-0.7,0.1c-0.2,0-0.4-0.1-0.7-0.2
		c-0.2-0.1-0.3-0.2-0.5-0.4c-0.1-0.1-0.2-0.3-0.3-0.4c-0.4-0.6-0.5-1.1-0.7-1.7c-0.1-0.6-0.2-1.1-0.3-1.7l0.9,0.7
		c-0.6,0.1-1.2,0.2-1.8,0.3c-0.3,0-0.6,0-0.9,0c-0.3,0-0.7-0.1-1-0.1l-0.5-0.1c-0.2,0-0.3-0.2-0.5-0.2c-0.2-0.1-0.3-0.2-0.5-0.3
		c-0.2-0.1-0.3-0.3-0.4-0.5c-0.1-0.2-0.2-0.4-0.3-0.5c-0.1-0.2-0.1-0.4-0.2-0.6c0-0.2,0-0.4,0-0.6c0-0.2,0-0.4,0.1-0.6l1,0.9
		c-0.4,0.1-0.7,0.2-1.2,0.3c-0.2,0-0.4,0-0.7,0c-0.1,0-0.3,0-0.4-0.1c-0.1,0-0.3-0.1-0.5-0.2c-0.2-0.1-0.4-0.3-0.5-0.5
		c-0.1-0.2-0.1-0.5-0.1-0.6c0-0.4,0.1-0.6,0.2-0.8c0.1-0.2,0.2-0.4,0.3-0.6c0.1-0.2,0.2-0.3,0.4-0.5L91,9.8
		c-0.4,0.1-0.8,0.3-1.2,0.3c-0.2,0.1-0.4,0.1-0.7,0.1c-0.2,0-0.5,0-0.7,0c-0.3,0-0.5-0.1-0.8-0.2c-0.3-0.1-0.5-0.3-0.8-0.5
		c-0.2-0.2-0.4-0.5-0.5-0.8c-0.1-0.1-0.1-0.3-0.1-0.4c0-0.2,0-0.3,0-0.5l1.2,0.8L86.8,9c-0.2,0.1-0.4,0.2-0.7,0.3
		c-0.1,0-0.3,0.1-0.4,0.1c-0.1,0-0.3,0.1-0.5,0c-0.2,0-0.4,0-0.7-0.2c-0.3-0.1-0.4-0.4-0.6-0.6c-0.1-0.2-0.1-0.5-0.1-0.6
		c0-0.2,0-0.3,0.1-0.5C84,7.2,84.1,7,84.2,6.8c0.2-0.4,0.4-0.8,0.6-1.2l1.1,1.1c-0.4,0.2-0.7,0.4-1.1,0.6c-0.2,0.1-0.4,0.2-0.6,0.3
		c-0.2,0.1-0.4,0.2-0.7,0.2c-0.1,0-0.3,0.1-0.4,0.1c-0.1,0-0.3,0-0.5,0c-0.2,0-0.4-0.1-0.6-0.3c-0.2-0.1-0.4-0.4-0.4-0.6
		c-0.1-0.2-0.1-0.4-0.1-0.5c0-0.2,0-0.3,0-0.4c0-0.1,0-0.3,0.1-0.4c0-0.1,0.1-0.2,0.1-0.4L83.2,6c-0.7,0.9-1.6,1.1-2.4,1.3
		c-0.8,0.1-1.5,0.1-2.2,0.1c-1.5-0.1-2.9-0.3-4.2-0.6c-1.3-0.3-2.7-0.6-4-0.7C69.7,6,69.1,6,68.4,6c-0.3,0-0.7,0-1,0l-1,0.1l-1,0.1
		l-1,0.2l-1,0.2l-1,0.2c-0.7,0.1-1.3,0.3-1.9,0.5c-0.6,0.2-1.3,0.4-1.9,0.7c-0.6,0.2-1.3,0.5-1.9,0.8c-0.6,0.3-1.2,0.5-1.8,0.9
		c-1.2,0.6-2.4,1.3-3.6,1.9c-1.2,0.7-2.3,1.4-3.4,2.2l-3.4,2.4c-0.6,0.4-1.1,0.8-1.7,1.2c-0.6,0.4-1.2,0.8-1.8,1.1
		c-0.6,0.4-1.3,0.7-1.9,1c-0.7,0.3-1.4,0.5-2.1,0.7c-1.4,0.3-2.9,0.5-4.3,0.5l-4.1,0.1c-1.4,0-2.7,0.1-4.1,0.2
		c-1.3,0.1-2.7,0.3-4.1,0.4l0.1,0l-2.1,0.4c-0.7,0.1-1.4,0.2-2.1,0.3c-1.4,0.2-2.7,0.4-4.1,0.5l-0.1,0c-0.1,0-0.2,0-0.4,0.1
		c-0.1,0-0.3,0.1-0.4,0.2c-0.3,0.1-0.6,0.4-0.8,0.6c-0.3,0.2-0.5,0.5-0.8,0.8c-0.1,0.2-0.2,0.3-0.3,0.5c-0.1,0.2-0.2,0.3-0.3,0.5
		l0.1-0.6l1.2,8.7L10.2,33c0.6,1.2,1.2,2.4,1.8,3.7c0.3,0.6,0.5,1.3,0.8,2c0.2,0.6,0.4,0.8,0.8,1.3c0.4,0.4,0.9,0.8,1.4,1.1
		c0.5,0.4,1.1,0.7,1.6,1l3.5,2l1.7,0.9c0.6,0.3,1.2,0.5,1.8,0.7l0.9,0.4c0.1,0.1,0.3,0.1,0.4,0.2l0.5,0.2l1.9,0.6
		c0.6,0.2,1.3,0.3,1.9,0.5c0.6,0.2,1.2,0.3,1.9,0.4c0.6,0.1,1.3,0.2,1.9,0.2l1.9,0l3.7-0.1l-3.1,1.9c-1.4,0.9-2.8,1.7-4.2,2.4
		l-1.1,0.6l-1.2,0.5l-1.1,0.5l-1.1,0.5c-0.8,0.3-1.4,0.7-2.1,1c-0.7,0.3-1.3,0.8-2,1.2c-0.7,0.4-1.3,0.9-1.9,1.4l-0.4,0.3L20,58.6
		c-0.3,0.3-0.6,0.5-0.9,0.8l-1.6,1.7c-0.5,0.6-1.2,1.2-1.8,1.7c-0.6,0.6-1.2,1-1.7,1.6c-0.6,0.5-1.1,1.1-1.6,1.7
		c-0.5,0.6-1,1.2-1.3,1.8c-0.2,0.3-0.3,0.6-0.4,0.8c0,0.1,0,0.3-0.1,0.5c0,0.2,0,0.4,0,0.6c0,0.7,0,1.4,0.2,2c0.2,0.6,0.6,1,1.1,1.3
		L11.6,73c0.1,0,0.4,0,0.5-0.1c0.2,0,0.4-0.1,0.6-0.2c0.2-0.1,0.4-0.1,0.6-0.3c0.2-0.1,0.4-0.2,0.5-0.3l0.5-0.4
		c0.2-0.1,0.3-0.3,0.4-0.4c0.1-0.2,0.3-0.3,0.4-0.5l0.4-0.5l0.2-0.3l0.2-0.3l0.4-0.6l0.4-0.6l0.2-0.3l0.3-0.3l0.5-0.7
		c0.2-0.2,0.4-0.4,0.6-0.6l0.3-0.3l0.3-0.2l0.6-0.4l2.4-1.7l-1,2.8c0,0.1-0.1,0.5-0.1,0.7c0,0.3,0.1,0.6,0.2,0.9
		c0.2,0.5,0.6,1.2,1.1,1.4c0.5,0.4,1.2,0.7,1.9,0.9c0.7,0.3,1.4,0.5,2.2,0.8c0.4,0.1,0.8,0.3,1.2,0.5c0.1,0.1,0.2,0.2,0.4,0.2l0,0
		c-0.2-0.1,0,0-0.1-0.1l0,0l0,0l0.1,0l0.1,0.1l0.2,0.2l0.2,0.1c0.5,0.2,1.2,0.3,1.9,0.4c1.4,0.1,2.9,0,4.4-0.2
		c1.5-0.2,3-0.4,4.5-0.7l4.6-0.8c1.5-0.3,3.1-0.5,4.6-0.7c1.5-0.2,3.1-0.4,4.6-0.5l0.2,0l0.2,0.1c0.3,0.1,0.6,0.2,0.9,0.4
		c0.3,0.1,0.6,0.3,0.8,0.5c0.3,0.2,0.5,0.4,0.8,0.7c0.1,0.1,0.3,0.3,0.4,0.5c0.1,0.2,0.2,0.4,0.3,0.7l0,0.3L56.3,73
		c-0.1,0.3-0.3,0.5-0.4,0.7c-0.1,0.2-0.3,0.4-0.5,0.6c-0.2,0.2-0.3,0.4-0.5,0.5c-0.2,0.2-0.4,0.3-0.6,0.5l-0.6,0.4L53,75.9
		c-0.5,0.2-1,0.2-1.4,0.3l0.5-1.5c0.2,0.2,0.3,0.3,0.5,0.5c0.1,0.2,0.3,0.3,0.4,0.5c0.1,0.2,0.3,0.4,0.4,0.6
		c0.1,0.1,0.1,0.3,0.1,0.4c0,0.2,0.1,0.3,0.1,0.5c0,0.2,0,0.4-0.1,0.6c-0.1,0.2-0.2,0.4-0.3,0.5c-0.1,0.1-0.2,0.3-0.4,0.4l-0.4,0.2
		c-0.1,0.1-0.2,0.1-0.3,0.1C52,79,51.9,79,51.8,79l-0.6,0.1L51,77.5c0.6,0,1.2,0,1.9,0.2c0.2,0,0.3,0.1,0.5,0.1
		c0.2,0.1,0.4,0.1,0.7,0.3c0.1,0.1,0.3,0.3,0.4,0.6c0,0.1,0,0.3,0,0.5c0,0.1-0.1,0.2-0.1,0.3c-0.2,0.3-0.4,0.5-0.5,0.6
		c-0.3,0.2-0.6,0.4-0.9,0.5c-0.3,0.1-0.6,0.3-0.8,0.4c-0.6,0.2-1.1,0.4-1.7,0.6l0.3-1.3c0.1,0.1,0.2,0.2,0.3,0.3
		c0.1,0.1,0.2,0.2,0.2,0.3c0.1,0.2,0.2,0.5,0.3,0.7c0.1,0.3,0.1,0.6,0.1,0.9c0,0.3-0.1,0.6-0.2,0.9c-0.1,0.3-0.3,0.5-0.5,0.7
		c-0.2,0.2-0.4,0.4-0.6,0.5c-0.4,0.3-0.8,0.5-1.3,0.7l-0.2-1.5c0.4,0,0.7,0.1,1,0.2c0.2,0,0.3,0.1,0.5,0.2c0.2,0.1,0.4,0.2,0.5,0.3
		c0.2,0.1,0.3,0.3,0.5,0.6c0.1,0.2,0.2,0.5,0.2,0.7c0,0.2,0,0.5-0.1,0.7c-0.1,0.2-0.1,0.4-0.2,0.5L51,87.6c-0.1,0.2-0.2,0.3-0.3,0.4
		c-0.2,0.3-0.4,0.5-0.7,0.7c-0.4,0.5-0.9,0.8-1.4,1.2l-0.1-1.3c0.3,0.2,0.4,0.3,0.6,0.5c0.2,0.2,0.3,0.3,0.4,0.5
		c0.1,0.2,0.2,0.4,0.3,0.6c0,0.2,0.1,0.5,0.1,0.7c0,0.2,0,0.4-0.1,0.6c0,0.2-0.1,0.4-0.2,0.6c-0.1,0.2-0.1,0.4-0.2,0.5
		c-0.1,0.2-0.2,0.3-0.3,0.5c-0.2,0.3-0.4,0.6-0.7,0.9c-0.2,0.3-0.5,0.5-0.7,0.8c-0.5,0.5-1,0.9-1.6,1.4L45.4,95
		c0.5-0.2,1-0.3,1.5-0.4c0.5-0.1,1-0.2,1.7-0.2c0.2,0,0.3,0,0.5,0.1c0.2,0.1,0.5,0.1,0.7,0.4c0.2,0.3,0.3,0.7,0.2,0.9
		c0,0.2-0.1,0.4-0.2,0.6c-0.3,0.6-0.7,1-1,1.4l0.1-0.8c0.1,0.2,0.1,0.4,0.2,0.5c0,0.2,0,0.3,0,0.5c0,0.3-0.1,0.6-0.1,1l-0.4,0.9
		l-0.5,0.7c-0.2,0.3-0.4,0.4-0.6,0.6c-0.2,0.2-0.4,0.4-0.6,0.6l-1.4,0.9l-0.6-1.2c0.4-0.2,0.8-0.4,1.3-0.6c0.3-0.1,0.5-0.1,0.8-0.1
		c0.1,0,0.4,0.1,0.6,0.1c0.2,0.1,0.4,0.3,0.5,0.6c0.2,0.4,0.1,0.8,0.1,1c0,0.3-0.2,0.5-0.2,0.7c-0.1,0.2-0.2,0.4-0.3,0.6
		c-0.1,0.2-0.2,0.3-0.2,0.5c-0.6,1.5-0.9,3.2-0.4,4.7c0.1,0.4,0.2,0.7,0.4,1.1c0.2,0.3,0.4,0.7,0.6,1.1c0.4,0.8,0.9,1.5,1.2,2.4
		c0.2,0.4,0.3,0.9,0.3,1.4c0,0.5,0,1-0.3,1.5c-0.2,0.5-0.5,0.9-0.9,1.2c-0.4,0.3-0.7,0.6-1.1,0.9l-0.2-1c0.2,0,0.3,0.1,0.4,0.1
		c0.1,0,0.2,0.1,0.4,0.2c0.2,0.1,0.5,0.3,0.6,0.5c0.4,0.4,0.5,1,0.5,1.5c0,0.3-0.1,0.5-0.1,0.7c-0.1,0.2-0.1,0.4-0.2,0.6
		c-0.1,0.2-0.2,0.4-0.3,0.6l-0.3,0.6l-0.2-0.8c0.2,0.2,0.4,0.3,0.6,0.5c0.2,0.2,0.3,0.4,0.4,0.5c0.3,0.4,0.5,0.8,0.7,1.2
		c0.1,0.2,0.2,0.4,0.2,0.6l0.2,0.6c0.1,0.2,0.1,0.4,0.1,0.6l0.1,0.7c0,0.2,0.1,0.4,0.1,0.7l0,0.7l0,1.3c0,0.4-0.1,0.9-0.2,1.3
		l-0.2,1.3l-0.5-0.6c0.3,0,0.5,0.1,0.7,0.1c0.2,0.1,0.4,0.2,0.6,0.3c0.2,0.1,0.4,0.3,0.5,0.5c0.2,0.2,0.3,0.4,0.4,0.6
		c0.1,0.2,0.2,0.4,0.2,0.6c0.1,0.2,0.1,0.4,0.1,0.6c0,0.2,0,0.4,0,0.6c0,0.2,0,0.4,0,0.6c0,0.4,0,0.8-0.1,1.2
		c-0.1,0.4-0.1,0.8-0.2,1.1c-0.1,0.4-0.2,0.7-0.3,1.1l-0.3,1.1l-0.8-0.4c0.2-0.2,0.3-0.4,0.5-0.5c0.2-0.2,0.4-0.3,0.7-0.4
		c0.1-0.1,0.3-0.1,0.4-0.1c0.1,0,0.3,0,0.5,0c0.2,0,0.3,0.1,0.5,0.2l0.2,0.1l0.1,0.2c0.1,0.1,0.2,0.2,0.2,0.3l0.1,0.3
		c0.1,0.2,0.2,0.5,0.2,0.7c0.1,0.5,0.1,0.9,0.2,1.4c0,0.2,0,0.5,0,0.7l0,0.7c0,0.4,0,0.9,0,1.3c0,0.9-0.1,1.8-0.2,2.7l-0.6-0.3
		c0.5-0.4,1.1-0.7,1.7-0.9c0.3-0.1,0.6-0.2,0.9-0.3c0.2,0,0.3-0.1,0.5-0.1c0.2,0,0.3,0,0.5,0c0.2,0,0.3,0,0.5,0.1
		c0.2,0,0.3,0.1,0.5,0.2c0.2,0.1,0.3,0.2,0.4,0.3c0.1,0.1,0.2,0.3,0.3,0.4c0.1,0.2,0.2,0.3,0.2,0.5l0.1,0.5c0.1,0.3,0.1,0.6,0.1,1
		l-0.3-0.3c0.4,0.1,0.8,0.2,1.1,0.5c0.3,0.2,0.7,0.5,0.9,0.8c0.3,0.3,0.5,0.7,0.6,1c0.1,0.2,0.1,0.4,0.2,0.6
		c0.1,0.2,0.1,0.4,0.1,0.6c0.1,0.4,0,0.8,0,1.2l-0.1,0.6c0,0.2,0,0.4-0.1,0.6c-0.1,0.4-0.2,0.7-0.3,1.1l-0.4,1.1l-0.2-0.3
		c0.6,0.1,1.1,0.3,1.6,0.6c0.3,0.1,0.5,0.3,0.7,0.5c0.1,0.1,0.2,0.2,0.3,0.3c0.1,0.1,0.2,0.2,0.3,0.4c0.1,0.1,0.2,0.3,0.2,0.4
		c0,0.1,0.1,0.3,0.1,0.4l0.1,0.5c0,0.2,0,0.3,0,0.4c0,0.3-0.1,0.6-0.2,0.9c-0.1,0.3-0.2,0.5-0.4,0.8l-0.2-0.3c0.4,0,0.8,0.1,1.2,0.1
		c0.4,0.1,0.8,0.1,1.1,0.3c0.4,0.1,0.7,0.3,1.1,0.5c0.2,0.1,0.3,0.2,0.5,0.4c0.2,0.1,0.3,0.3,0.3,0.5c0.1,0.2,0.1,0.4,0.2,0.6
		c0.1,0.2,0,0.4,0,0.6c0,0.2,0,0.4-0.1,0.6l-0.2,0.6l-0.3,0.5c-0.1,0.2-0.2,0.3-0.3,0.5l-0.7,0.9l-0.2-0.1c0.2-0.2,0.4-0.4,0.7-0.6
		c0.1-0.1,0.4-0.1,0.5,0.1c0.1,0.1,0.2,0.3,0.2,0.4c0.1,0.3,0.1,0.6,0.1,0.8c0,0.3,0,0.6,0,0.8l0-0.1c0.5,0.9,0.9,1.8,1.2,2.8
		c0.3,1,0.6,2,0.8,3c0,0.3,0.1,0.5,0.1,0.8c0,0.3,0,0.5,0,0.8c0,0.3,0,0.5,0,0.8l-0.1,0.8l-0.1,0.8c0,0.3-0.1,0.5-0.2,0.7
		c-0.1,0.2-0.1,0.5-0.3,0.7l-0.3,0.7l0.3-0.7c0.1-0.2,0.2-0.5,0.3-0.7c0.1-0.2,0.2-0.5,0.2-0.7l0.1-0.8l0-0.8c0-0.3,0-0.5,0-0.8
		c0-0.3,0-0.5-0.1-0.8c0-0.3-0.1-0.5-0.1-0.8c-0.4-2-1.1-3.9-2.1-5.7l0,0v0c0-0.3,0-0.5,0-0.8c0-0.3,0-0.5-0.1-0.8
		c-0.1-0.3-0.2-0.4-0.5-0.3c-0.2,0.1-0.4,0.3-0.6,0.5l-0.2-0.1l0.7-0.9c0.1-0.2,0.2-0.3,0.3-0.5l0.3-0.5l0.2-0.5
		c0.1-0.2,0.1-0.4,0.1-0.5c0-0.2,0-0.4,0-0.5c0-0.2,0-0.4-0.2-0.5c-0.1-0.2-0.2-0.3-0.3-0.4c-0.1-0.1-0.2-0.2-0.4-0.3
		c-0.3-0.2-0.6-0.4-1-0.5c-0.3-0.1-0.7-0.2-1.1-0.2c-0.4-0.1-0.7-0.1-1.1-0.1l-0.3,0l0.1-0.3c0.1-0.2,0.2-0.5,0.3-0.7
		c0.1-0.3,0.2-0.5,0.2-0.8c0-0.1,0-0.3,0-0.4l0-0.4c0-0.1-0.1-0.2-0.1-0.4c0-0.1-0.1-0.2-0.2-0.3c-0.1-0.1-0.2-0.2-0.2-0.3
		c-0.1-0.1-0.2-0.2-0.3-0.3c-0.2-0.2-0.4-0.3-0.7-0.4c-0.5-0.2-1-0.4-1.5-0.5l-0.3-0.1l0.1-0.3l0.3-1c0.1-0.3,0.2-0.7,0.2-1.1
		c0-0.2,0-0.4,0.1-0.5l0.1-0.5c0-0.4,0-0.7,0-1.1c0-0.2,0-0.4-0.1-0.5c-0.1-0.2-0.1-0.3-0.2-0.5c-0.1-0.3-0.3-0.6-0.5-0.9
		c-0.2-0.3-0.5-0.5-0.8-0.6c-0.3-0.2-0.6-0.3-0.9-0.4l-0.2,0l0-0.2c0-0.3-0.1-0.6-0.1-0.8l-0.1-0.4c0-0.1-0.1-0.2-0.2-0.4
		c-0.1-0.1-0.1-0.2-0.2-0.3c-0.1-0.1-0.2-0.2-0.3-0.2c-0.1,0-0.2-0.1-0.3-0.1c-0.1,0-0.2-0.1-0.4-0.1c-0.1,0-0.3,0-0.4,0
		c-0.1,0-0.3,0-0.4,0.1c-0.3,0.1-0.5,0.2-0.8,0.3c-0.5,0.2-1,0.5-1.5,0.9l-0.6,0.4l0-0.8c0-0.9,0.1-1.7,0.1-2.6c0-0.4,0-0.9,0-1.3
		l0-0.6c0-0.2,0-0.4,0-0.6c-0.1-0.4-0.1-0.9-0.2-1.2c0-0.2-0.1-0.4-0.2-0.6l-0.1-0.3c0-0.1-0.1-0.1-0.1-0.2l-0.1-0.1
		c0,0-0.1,0-0.1,0c0,0-0.1-0.1-0.1-0.1c0,0-0.1,0-0.2,0c-0.1,0-0.1,0-0.2,0.1c-0.1,0.1-0.3,0.2-0.4,0.3c-0.1,0.1-0.3,0.3-0.4,0.4
		l-1.4,1.6l0.6-2.1l0.3-1c0.1-0.3,0.2-0.7,0.3-1c0.1-0.4,0.1-0.7,0.2-1.1c0.1-0.4,0.1-0.7,0.1-1c0-0.2,0-0.3,0-0.5
		c0-0.2,0-0.3,0-0.5c0-0.2,0-0.3-0.1-0.5c-0.1-0.1-0.1-0.3-0.2-0.4c-0.1-0.1-0.1-0.3-0.2-0.4c-0.1-0.1-0.2-0.2-0.3-0.3
		c-0.1-0.1-0.2-0.1-0.4-0.2c-0.1,0-0.3-0.1-0.4-0.1l-0.6,0l0.1-0.6l0.2-1.2c0.1-0.4,0.1-0.8,0.2-1.2l0-1.2l0-0.6
		c0-0.2-0.1-0.4-0.1-0.6l-0.1-0.6c0-0.2-0.1-0.4-0.1-0.6l-0.2-0.5c-0.1-0.2-0.1-0.4-0.2-0.5c-0.2-0.3-0.4-0.7-0.6-1
		c-0.1-0.1-0.2-0.3-0.4-0.4c-0.1-0.1-0.3-0.3-0.4-0.3l-0.4-0.3l0.3-0.5l0.3-0.5c0.1-0.2,0.2-0.3,0.3-0.5c0.1-0.3,0.3-0.7,0.3-1
		c0-0.1,0-0.2,0-0.2c0-0.1,0-0.1,0-0.2c0-0.1,0-0.1-0.1-0.2c0-0.1-0.1-0.1-0.1-0.2c-0.1-0.1-0.2-0.2-0.3-0.3c-0.1,0-0.1-0.1-0.2-0.1
		c-0.1,0-0.2-0.1-0.2-0.1l-1.3-0.3l1.1-0.7c0.3-0.2,0.6-0.5,0.9-0.7c0.2-0.3,0.5-0.6,0.6-0.9c0.3-0.6,0.2-1.4-0.1-2.1
		c-0.3-0.7-0.7-1.5-1.1-2.2c-0.2-0.4-0.5-0.7-0.7-1.1c-0.2-0.4-0.4-0.9-0.5-1.3c-0.1-0.5-0.2-0.9-0.2-1.4c0-0.5,0-0.9,0-1.4
		c0.1-0.9,0.3-1.8,0.7-2.7c0.1-0.2,0.2-0.5,0.3-0.6c0.1-0.2,0.2-0.4,0.2-0.5c0-0.2,0.1-0.4,0.2-0.5c0-0.2,0-0.3,0-0.2
		c0,0,0,0.1,0.1,0.1c0,0,0,0-0.1,0c-0.1,0-0.3,0-0.4,0.1c-0.3,0.1-0.7,0.3-1,0.5l-0.6-1.2l1.2-0.8c0.2-0.1,0.3-0.3,0.5-0.5
		c0.2-0.2,0.4-0.3,0.5-0.5l0.4-0.5c0.1-0.2,0.2-0.4,0.2-0.6c0-0.2,0.1-0.4,0.1-0.6c0-0.1,0-0.2,0-0.3l-0.1-0.2L47.6,97l0.2-0.3
		c0.3-0.3,0.7-0.7,0.8-1c0-0.1,0.1-0.1,0.1-0.2c0,0,0,0.1,0.1,0.2c0.1,0.1,0.1,0.1,0.1,0.1c0,0-0.1,0-0.2,0c-0.4,0-0.9,0.1-1.3,0.2
		c-0.5,0.1-0.9,0.3-1.4,0.4l-3.7,1.3l3-2.5c0.5-0.4,1-0.8,1.4-1.3c0.2-0.2,0.4-0.4,0.6-0.7c0.2-0.2,0.4-0.5,0.5-0.7
		c0.1-0.1,0.1-0.2,0.2-0.4c0.1-0.1,0.1-0.2,0.2-0.4c0-0.1,0.1-0.2,0.1-0.4c0-0.1,0-0.2,0-0.3c0-0.1,0-0.2,0-0.3
		c0-0.1-0.1-0.2-0.1-0.3c0-0.1-0.1-0.2-0.2-0.3C48,90.1,47.8,90,47.8,90l-0.9-0.6l0.8-0.7c0.4-0.4,0.9-0.7,1.3-1.1
		c0.2-0.2,0.4-0.4,0.5-0.6c0.1-0.1,0.2-0.2,0.2-0.3l0.2-0.3c0.1-0.1,0.1-0.2,0.1-0.3c0.1-0.1,0-0.1,0-0.2c0,0,0-0.1,0-0.1
		c0,0,0-0.1-0.1-0.1c0,0-0.1-0.1-0.2-0.1c-0.1,0-0.2-0.1-0.3-0.1c-0.2-0.1-0.5-0.1-0.7-0.1l-2.9-0.2l2.7-1.3l0.5-0.2
		c0.2-0.1,0.3-0.2,0.4-0.3c0.1-0.1,0.3-0.2,0.3-0.3c0.1-0.1,0.2-0.2,0.2-0.3c0.1-0.2,0.1-0.4,0-0.7c0-0.1-0.1-0.3-0.2-0.4
		c0-0.1-0.1-0.1-0.1-0.2c0-0.1-0.1-0.1-0.1-0.2l-0.9-0.9l1.2-0.4c0.5-0.2,1.1-0.4,1.6-0.6c0.3-0.1,0.5-0.2,0.7-0.3
		c0.2-0.1,0.5-0.2,0.6-0.4c0.1-0.1,0.1-0.1,0.1,0c0,0,0,0.1,0,0.1c0,0.1,0,0.2,0,0.2c0,0.2,0.1,0.3,0.2,0.3c0.1,0,0,0-0.1,0
		c-0.1,0-0.2-0.1-0.3-0.1c-0.5-0.1-1-0.1-1.6-0.1l-7.9-0.1l7.8-1.6l0.5-0.1c0.1,0,0.1,0,0.2-0.1c0.1,0,0.1,0,0.2-0.1
		c0,0,0.1,0,0.1-0.1c0,0,0,0,0,0c0,0,0,0,0,0c0,0,0,0,0,0c0,0,0,0,0-0.1c0,0,0-0.1,0-0.1c-0.1-0.1-0.1-0.2-0.2-0.3
		c-0.1-0.1-0.2-0.2-0.3-0.4c-0.1-0.1-0.2-0.2-0.3-0.3l-1.2-1l1.7-0.5c0.3-0.1,0.7-0.1,1-0.2l0.5-0.2l0.4-0.3
		c0.2-0.1,0.3-0.2,0.4-0.3c0.1-0.1,0.3-0.2,0.4-0.4c0.1-0.1,0.2-0.3,0.3-0.4c0.1-0.1,0.2-0.3,0.3-0.4l-0.1,0.5c0,0,0,0,0-0.1
		c0,0-0.1-0.1-0.1-0.2c-0.1-0.1-0.3-0.3-0.5-0.4c-0.2-0.1-0.4-0.2-0.6-0.4c-0.2-0.1-0.5-0.2-0.7-0.3l0.3,0c-1.5,0.2-3,0.3-4.5,0.5
		c-1.5,0.2-3,0.5-4.5,0.7l-4.5,0.8c-1.5,0.3-3.1,0.6-4.6,0.7c-1.6,0.2-3.1,0.3-4.8,0.2c-0.4,0-0.8-0.1-1.2-0.2
		c-0.2,0-0.4-0.1-0.6-0.2c-0.2,0-0.4-0.1-0.7-0.2l-0.4-0.2l-0.2-0.2l-0.4-0.3c-0.2-0.1-0.6-0.3-0.9-0.4c-0.7-0.3-1.4-0.5-2.2-0.8
		c-0.7-0.3-1.5-0.6-2.3-1.1c-0.9-0.6-1.3-1.3-1.7-2.2C19.1,68.5,19,68,19,67.5c0-0.5,0-0.9,0.2-1.5l1.4,1.1l-0.6,0.4l-0.3,0.2
		l-0.2,0.2c-0.1,0.1-0.3,0.2-0.4,0.4l-0.4,0.5l-0.2,0.2l-0.2,0.3L17.9,70l-0.4,0.6L17.3,71l-0.2,0.3L16.6,72
		c-0.1,0.2-0.4,0.4-0.5,0.6c-0.2,0.2-0.4,0.4-0.6,0.6l-0.7,0.5c-0.2,0.2-0.5,0.3-0.7,0.4c-0.2,0.1-0.5,0.3-0.8,0.3
		c-0.3,0.1-0.5,0.2-0.8,0.2c-0.3,0.1-0.5,0.1-0.9,0.1l-0.2,0l-0.2-0.1c-0.9-0.5-1.7-1.4-2-2.3c-0.3-0.9-0.4-1.8-0.4-2.7
		c0-0.2,0-0.5,0-0.6c0-0.2,0-0.4,0.1-0.7c0.1-0.6,0.3-1,0.6-1.4c0.4-0.8,1-1.5,1.5-2.1c0.5-0.6,1.1-1.2,1.7-1.8
		c0.6-0.6,1.3-1.2,1.8-1.7c0.6-0.5,1.1-1,1.7-1.6l1.7-1.8c0.3-0.3,0.6-0.6,0.9-0.8l0.4-0.4c0.3-0.2,0.4-0.3,0.5-0.4
		c0.7-0.5,1.3-1,2-1.4c0.7-0.4,1.4-0.9,2.1-1.3c0.8-0.4,1.5-0.8,2.3-1.1l1.1-0.5l1.1-0.5l1-0.5l1-0.6c1.4-0.7,2.8-1.6,4.1-2.4
		l0.6,1.8L33,50c-0.7,0-1.4-0.1-2.1-0.2c-0.7-0.1-1.4-0.2-2.1-0.4c-0.7-0.2-1.4-0.3-2-0.5l-1.9-0.6l-0.5-0.2
		C24.2,48.1,24,48,23.9,48l-1-0.4c-0.6-0.3-1.3-0.5-1.9-0.8l-1.9-0.9l-3.5-2c-0.6-0.3-1.2-0.7-1.8-1.1c-0.6-0.4-1.2-0.8-1.7-1.4
		c-0.5-0.5-1.1-1.4-1.3-2.1c-0.2-0.6-0.4-1.2-0.7-1.8c-0.5-1.2-1.1-2.4-1.7-3.6l-0.1-0.2l0-0.1l-1.2-8.8l0-0.3l0.2-0.3
		c0.1-0.2,0.3-0.4,0.4-0.6c0.1-0.2,0.3-0.4,0.4-0.6c0.3-0.4,0.6-0.7,1-1.1c0.4-0.3,0.8-0.6,1.2-0.9c0.2-0.1,0.5-0.2,0.8-0.3
		c0.3-0.1,0.6-0.1,0.9-0.1l-0.1,0c1.3-0.2,2.7-0.3,4.1-0.5c0.7-0.1,1.4-0.2,2-0.3l2-0.4l0.1,0c1.4-0.2,2.8-0.3,4.2-0.4
		c1.4-0.1,2.8-0.2,4.2-0.2l4.1-0.1c1.4,0,2.7-0.1,3.9-0.4c0.6-0.2,1.2-0.3,1.8-0.6c0.6-0.2,1.2-0.5,1.8-0.9c0.6-0.3,1.1-0.7,1.7-1
		c0.6-0.3,1.1-0.7,1.7-1.1l3.4-2.4c1.2-0.8,2.3-1.5,3.5-2.3c1.2-0.7,2.4-1.4,3.7-2c0.6-0.3,1.3-0.6,1.9-0.9c0.6-0.3,1.3-0.5,2-0.8
		c0.7-0.3,1.3-0.5,2-0.7c0.7-0.2,1.4-0.4,2.1-0.6l1-0.2l1.1-0.2l1.1-0.2l1.1-0.1l1.1-0.1c0.4,0,0.7,0,1.1,0c0.7,0,1.4,0,2.2,0.1
		c1.5,0.1,2.8,0.4,4.2,0.7c1.3,0.3,2.6,0.5,4,0.5c0.7,0,1.3,0,1.9-0.1c0.6-0.1,1.1-0.3,1.2-0.5l3.1-4.8l-1.7,5.6L83.2,6
		c0,0.1,0,0.1,0,0.2c0,0.1,0,0.1,0,0.1c0,0,0,0,0,0c0,0,0-0.1-0.1-0.1c0,0-0.1,0-0.1-0.1c0,0,0,0,0.1,0c0,0,0.1,0,0.2,0
		c0.1,0,0.3-0.1,0.4-0.1c0.1,0,0.3-0.1,0.5-0.2c0.3-0.1,0.6-0.3,0.9-0.5l2.7-1.4l-1.5,2.6c-0.2,0.3-0.4,0.7-0.5,1
		c-0.1,0.2-0.1,0.3-0.1,0.4c0,0.1,0,0.1,0,0.2c0,0.1,0,0,0,0c0-0.1-0.1-0.1-0.2-0.2c-0.1,0-0.1,0-0.1,0c0,0,0.1,0,0.1,0
		c0.1,0,0.1,0,0.2,0c0.2-0.1,0.3-0.1,0.5-0.2l0.5-0.2l1.2,0.8c0,0,0,0.1,0,0.1c0,0,0,0.1,0,0.1c0,0.1,0.1,0.1,0.1,0.2
		c0.1,0,0.1,0.1,0.2,0.1c0.1,0,0.2,0.1,0.4,0.1c0.1,0,0.3,0,0.4,0c0.2,0,0.3,0,0.5-0.1c0.3-0.1,0.7-0.2,1-0.3l2.6-0.8l-1.7,2
		c-0.1,0.1-0.2,0.2-0.3,0.4c-0.1,0.1-0.2,0.3-0.2,0.4c0,0.1-0.1,0.1-0.1,0.2c0,0,0,0.1,0,0.1c0,0,0,0,0-0.1c0-0.1-0.1-0.1-0.1-0.1
		c0,0-0.1,0,0,0c0,0,0,0,0.1,0c0.1,0,0.2,0,0.4,0c0.3,0,0.6-0.1,1-0.2l1.2-0.3L93.1,11c0,0,0,0.2,0,0.3c0,0.1,0,0.2,0,0.3
		c0,0.1,0,0.2,0.1,0.3c0,0.1,0.1,0.1,0.1,0.2c0.1,0.1,0.1,0.1,0.2,0.2c0.1,0,0.1,0.1,0.2,0.2c0.1,0,0.2,0.1,0.3,0.1l0.3,0.1
		c0.2,0,0.5,0.1,0.7,0.1c0.3,0,0.5,0,0.8,0c0.5,0,1.1-0.1,1.6-0.2l0.8-0.1l0.1,0.8c0,0.5,0.1,1,0.2,1.5c0.1,0.5,0.3,0.9,0.5,1.3
		c0.1,0.1,0.1,0.2,0.2,0.2c0.1,0,0.1,0.1,0.1,0.1c0,0,0.1,0.1,0.1,0c0,0,0.1,0,0.1,0c0.1,0,0.1,0,0.2-0.1L100,16
		c0.1-0.1,0.2-0.2,0.2-0.2l0.3-0.2l1.8-1.7l-0.6,2.4c-0.1,0.2-0.1,0.6-0.1,0.9c0,0.3,0,0.6,0,0.9c0,0.3,0.1,0.6,0.2,0.8
		c0,0.1,0.1,0.3,0.1,0.4c0.1,0.1,0.1,0.2,0.2,0.3c0.1,0.1,0.1,0.2,0.2,0.3c0.1,0.1,0.2,0.2,0.3,0.2l0.3,0.2l0.4,0.1
		c0.3,0.1,0.6,0,0.8,0.1l0.9-0.1l0.8-0.1l0,0.7c0,0.1,0,0.2,0,0.4c0,0.1,0,0.3,0.1,0.4c0.1,0.3,0.2,0.5,0.3,0.8
		c0.1,0.2,0.2,0.5,0.4,0.7c0.2,0.2,0.3,0.4,0.5,0.6c0.1,0.1,0.2,0.2,0.3,0.3c0.1,0.1,0.2,0.2,0.3,0.2c0.2,0.1,0.5,0.3,0.7,0.3
		c0.3,0.1,0.5,0.1,0.8,0.2c0.3,0,0.6,0.1,0.9,0.1l2.2,0.3l-1.9,0.9c-0.3,0.1-0.6,0.3-0.8,0.5c-0.1,0.1-0.2,0.2-0.2,0.2c0,0,0,0,0,0
		c0,0,0-0.1,0,0c0,0,0,0,0.1,0.1c0.1,0,0.1,0.1,0.2,0.1c0.1,0.1,0.3,0.1,0.4,0.2c0.3,0.1,0.7,0.2,1,0.3l1.3,0.3l-1.1,0.8
		c-0.5,0.3-0.9,0.8-1.3,1.2c-0.2,0.2-0.4,0.4-0.5,0.7c-0.1,0.1-0.1,0.2-0.2,0.3l-0.1,0.3c0,0.1,0,0.2,0,0.2c0,0.1,0,0.1,0.1,0.2
		c0.1,0.1,0.1,0.2,0.2,0.2l0.3,0.2c0.1,0.1,0.3,0.1,0.4,0.1c0.1,0,0.3,0.1,0.4,0.1l0.9,0.2l-0.1,1.2c-0.7,0-1.4,0-2.1,0.1
		c-0.3,0-0.7,0.1-1,0.2c-0.2,0-0.3,0.1-0.4,0.1c0,0,0,0,0,0c0.1-0.1,0-0.2,0-0.2c0-0.1,0.1,0.1,0.2,0.1c0.1,0.1,0.2,0.2,0.4,0.3
		c0.3,0.2,0.6,0.3,0.9,0.5c0.6,0.3,1.3,0.5,2,0.8l-0.3,1.1c-0.5-0.1-1-0.2-1.4-0.2c-0.2,0-0.5,0-0.7,0c-0.2,0-0.4,0-0.6,0.1
		c-0.1,0-0.1,0,0,0c0-0.1,0-0.1,0,0c0,0.1,0.2,0.3,0.3,0.4c0.3,0.3,0.7,0.7,1,1l-0.6,0.8c-0.5-0.3-1-0.7-1.5-1
		c-0.3-0.2-0.5-0.3-0.7-0.4l-0.1,0c0,0,0,0,0,0c0,0,0,0,0.1,0c0.1,0,0,0,0.3-0.1c0.1-0.1,0.1-0.2,0.2-0.2c0-0.1,0-0.1,0-0.1
		c0-0.1,0-0.2,0-0.2c0,0,0,0,0,0l0,0c0.1,0.1,0.2,0.2,0.3,0.3l0,0l0,0c1.8,2.2,3.4,4.6,4.9,7c0.7,1.2,1.4,2.5,2.1,3.7
		c0.3,0.6,0.6,1.3,0.9,1.9c0.3,0.7,0.6,1.3,0.8,2c0.5,1.3,1,2.7,1.3,4.1c0.3,1.4,0.7,2.7,1,4.1c0.2,0.7,0.5,1.3,0.7,2
		c0.3,0.7,0.4,1.3,0.8,2c0.6,1.3,1.1,2.6,1.9,3.8c0.4,0.6,0.7,1.2,1.1,1.8l1.2,1.7c0.4,0.6,0.9,1.1,1.3,1.7c0.4,0.5,0.9,1.1,1.4,1.6
		c0.5,0.5,0.9,1,1.4,1.5l1.5,1.4l1.7,1.3c0.6,0.4,1.2,0.8,1.8,1.1c1.2,0.8,2.4,1.4,3.7,2.1c1.3,0.7,2.5,1.3,3.8,2l3.8,1.9
		C146.1,85.9,147.3,86.5,148.5,87.3z"/>
</g>
<path style="fill:none;stroke:#FFFFFF;stroke-miterlimit:10;" d="M58.1,16.7c0,0,3,2.9,3.8,4.5"/>
<path style="fill:#FFFFFF;" d="M55.2,22.3c-0.1,0.3-0.3,0.5-0.6,0.5c-0.4,0-0.7-0.3-0.7-0.7c0-0.3,0.2-0.5,0.5-0.6
	c-0.8-0.9-1.7-1.9-2.4-3.2c0,0-1.9,1.4-2.2,3.9c0,0,3.5,2.2,7.4,1.8C57.2,24,56.4,23.4,55.2,22.3z"/>
<g>
	<path style="fill:#FFFFFF;" d="M54.1,17.3c0,0,0.4,0.1,0.8,0.4c0.2,0.1,0.5,0.3,0.7,0.6c0.2,0.2,0.5,0.5,0.7,0.8
		c0.4,0.6,0.8,1.2,1,1.6c0.2,0.5,0.3,0.9,0.3,0.9s-0.4-0.2-0.8-0.5c-0.4-0.3-0.9-0.8-1.3-1.3c-0.2-0.3-0.4-0.5-0.6-0.8
		c-0.2-0.3-0.3-0.5-0.5-0.8C54.2,17.6,54.1,17.3,54.1,17.3z"/>
</g>
<g>
	<path style="fill:#FFFFFF;" d="M17.4,25.8c0,0-0.2,0.1-0.5,0.2c-0.3,0.2-0.7,0.4-1.1,0.8c-0.2,0.2-0.4,0.4-0.5,0.6
		c-0.1,0.2-0.3,0.6-0.7,0.9c-0.3,0.3-0.7,0.6-1.1,0.7c-0.4,0.2-0.8,0.3-1.4,0.4c-0.3,0-0.5,0-0.9-0.1c-0.3-0.1-0.7-0.3-0.9-0.6
		l-0.1-0.1l0-0.1l0,0l0,0l-0.1-0.1l-0.1-0.1c0,0-0.1-0.3-0.1-0.4c0-0.2,0-0.3-0.1-0.4c0-0.1,0-0.2,0-0.3c0-0.4,0.1-0.8,0.2-1
		c0.1-0.3,0.1-0.5,0.2-0.6c0,0,0.1,0,0.1,0c0,0,0.1-0.1,0-0.1c-0.1-0.1-0.3-0.1-0.4-0.2c-0.3,0-0.6-0.1-0.6-0.1l-0.1-0.2
		c0,0,0.1-0.2,0.4-0.4c0.2-0.1,0.4-0.3,0.7-0.3c0.2,0,0.5,0,0.7,0.1c0.3,0.2,0.5,0.4,0.6,0.6c0.2,0.5,0.2,0.8,0.3,1.2
		c0,0.4,0,0.7,0,1c0,0.1,0,0.1,0,0.2c0,0,0,0.2,0,0.1c0,0-0.1,0,0,0.1l0,0.1l0,0c0,0.1-0.1-0.1,0-0.1v0h0h0l0,0
		c-0.1,0,0,0.1,0.2,0.2c0.5,0.1,1.2-0.1,1.7-0.4c0.2-0.1,0.4-0.3,0.7-0.6c0.3-0.3,0.6-0.4,0.8-0.6c0.5-0.3,1-0.5,1.3-0.6
		c0.3-0.1,0.5-0.1,0.5-0.1L17.4,25.8z"/>
</g>
<path style="fill:none;stroke:#FFFFFF;stroke-miterlimit:10;" d="M19.7,66.4c0,0,2.6-2.5,4.8-2.8c4.4-0.6,5.6-4.7,10.2-4
	c2.6,0.4,10,1.7,12.8-0.8s3.9-0.5,11-8.3c0,0-2.2-3.2-9.8-2.6c-4.8,0.4-5.7-1.1-13.6,0.8"/>
<g>
	<path style="fill:#FFFFFF;" d="M78.2,17.5l0.5,0.3c0.2,0.1,0.3,0.2,0.5,0.4c0.1,0.2,0.3,0.3,0.4,0.5c0.1,0.2,0.1,0.4,0.1,0.6
		c-0.1,0.2-0.2,0.4-0.4,0.5c-0.2,0.1-0.3,0.2-0.5,0.3c-0.4,0.2-0.7,0.3-1.1,0.4l-0.1-0.4c0.3-0.1,0.6-0.1,0.9-0.1
		c0.2,0,0.3,0,0.5,0.1c0.2,0,0.3,0.2,0.5,0.3c0.1,0.1,0.2,0.3,0.2,0.5c0,0.2,0,0.3,0,0.5c0,0.3-0.1,0.6-0.2,0.9L78.7,22
		c0.2-0.2,0.3-0.5,0.5-0.7c0.2-0.2,0.5-0.4,0.8-0.5c0.4-0.1,0.7,0,1,0.1c0.1,0.1,0.3,0.2,0.4,0.3c0.1,0.1,0.2,0.2,0.3,0.4l0.1,0.1
		l0,0.2c-0.1,0.9-0.5,1.8-1.2,2.4c-0.7,0.6-1.5,1-2.1,1.4c-0.7,0.4-1.2,0.8-1.4,1.4c-0.1,0.3-0.2,0.6-0.2,0.9c0,0.4-0.1,0.8-0.1,1.2
		c-0.1,1.6-0.2,3.2-0.2,4.8c0,1.6-0.1,3.2,0,4.8c0,1.6,0.1,3.2,0.2,4.8l0.2,2.4c0.1,0.8,0.2,1.6,0.3,2.3c0.1,0.8,0.2,1.6,0.4,2.3
		c0.2,0.8,0.3,1.5,0.6,2.3l0.3,1.1L79,55c0.2,0.7,0.7,1.3,1,2l-1.8,0.3c0-0.1,0.1-0.2,0.1-0.3c0-0.1,0.1-0.2,0.1-0.3
		c0.1-0.2,0.2-0.4,0.4-0.6c0.1-0.1,0.2-0.2,0.4-0.3c0.2-0.1,0.4-0.2,0.6-0.3c0.2,0,0.5,0,0.7,0.1c0.2,0.1,0.3,0.2,0.5,0.3l-0.7-0.2
		c0.2,0,0.2,0,0.4,0c0.1,0,0.2,0,0.3,0c0.2,0,0.4,0.1,0.6,0.2c0.4,0.2,0.9,0.5,1.2,0.9c0.1,0.2,0.3,0.4,0.3,0.7
		c0.1,0.2,0.1,0.4,0.1,0.7c0,0.4,0,0.8-0.1,1.2l-1.7-0.8c0.3-0.3,0.6-0.6,0.8-0.9c0.3-0.3,0.6-0.6,0.9-0.8c0.2-0.1,0.4-0.3,0.6-0.4
		c0.1-0.1,0.2-0.1,0.3-0.2c0.1-0.1,0.3-0.1,0.4-0.2c0.1,0,0.2,0,0.3,0c0.1,0,0.3,0,0.4,0c0.2,0,0.6,0.2,0.8,0.4
		c0.1,0.2,0.3,0.5,0.3,0.6c0,0.2,0.1,0.3,0.1,0.5L85,56.9c0.2-0.3,0.4-0.5,0.6-0.7c0.2-0.2,0.5-0.4,0.8-0.6c0.1,0,0.2-0.1,0.3-0.1
		c0.1,0,0.3-0.1,0.4-0.1c0.1,0,0.4,0,0.6,0.1c0.2,0.1,0.4,0.2,0.5,0.3c0.1,0.1,0.2,0.3,0.3,0.4c0,0.1,0.1,0.2,0.1,0.3
		c0,0.1,0,0.2,0.1,0.3l0,0.3l-1.3-0.7c0.4-0.2,0.8-0.5,1.2-0.7c0.4-0.3,0.8-0.6,1.1-0.9l0.5-0.5c0.2-0.2,0.3-0.4,0.4-0.5
		c0.3-0.3,0.5-0.8,0.8-1.2c0.5-0.9,0.8-1.8,1.3-2.8c0.2-0.5,0.5-1,0.8-1.5c0.3-0.5,0.8-0.9,1.4-1.2c0.6-0.3,1.2-0.4,1.8-0.4l1.6,0
		c1,0,2.1,0,3.1-0.1c0.5,0,1-0.1,1.4-0.2c0.5-0.2,0.4-0.1,0.2-0.8c-0.1-0.5-0.2-1-0.3-1.6c0-0.1,0-0.3,0.1-0.5
		c0-0.2,0.1-0.4,0.4-0.5c0.5-0.1,0.7,0.1,0.9,0.2l-0.3,0.2c-0.2-0.6-0.4-1.3-0.6-1.9c0-0.2-0.1-0.3-0.1-0.5c0-0.2,0-0.3,0-0.5
		c0-0.1,0-0.2,0.1-0.2c0-0.1,0.1-0.1,0.2-0.2c0.2,0,0.3,0,0.5,0.1c-0.2,0-0.3-0.1-0.5,0c-0.1,0.1-0.1,0.1-0.1,0.2
		c0,0.1-0.1,0.1-0.1,0.2c0,0.2,0,0.3,0,0.5c0,0.2,0.1,0.3,0.1,0.5c0.2,0.6,0.4,1.2,0.7,1.8l0.2,0.5l-0.5-0.3
		c-0.2-0.1-0.5-0.2-0.5-0.2c0,0-0.1,0.3-0.1,0.5c0,0.5,0.2,1,0.4,1.4c0.1,0.3,0.2,0.4,0.2,0.9c-0.1,0.5-0.5,0.6-0.8,0.8
		c-0.5,0.2-1.1,0.3-1.6,0.4c-1.1,0.2-2.1,0.2-3.1,0.3l-1.5,0.1c-0.5,0-0.9,0.1-1.2,0.3c-0.7,0.4-1.1,1.3-1.5,2.2
		c-0.4,0.9-0.8,1.9-1.2,2.9c-0.3,0.5-0.5,1-0.9,1.5c-0.2,0.2-0.3,0.5-0.5,0.7l-0.6,0.6c-0.4,0.4-0.8,0.8-1.3,1.1
		c-0.4,0.3-0.9,0.6-1.4,0.9l-1,0.6L87,57.2l0-0.1c0,0,0-0.1,0-0.1c0,0,0,0,0,0c0,0,0,0.1,0.1,0.1c0,0,0.1,0.1,0.2,0.1
		c0,0,0.2,0,0.2,0c0,0,0.1,0,0,0c0,0,0,0-0.1,0c-0.1,0.1-0.3,0.2-0.4,0.4c-0.2,0.2-0.3,0.3-0.5,0.5l-0.9,1.1l-0.8-1.6
		c0,0,0-0.1,0-0.1c0-0.1,0,0.1,0.1,0.1c0,0.1,0.2,0.2,0.3,0.2c0.1,0,0.1,0,0.1,0c0,0,0,0-0.1,0c0,0-0.1,0-0.2,0.1
		c-0.1,0.1-0.2,0.2-0.4,0.3c-0.3,0.2-0.5,0.4-0.8,0.7c-0.2,0.2-0.5,0.5-0.7,0.8l-2.2,2.5l0.5-3.3c0-0.2,0.1-0.5,0-0.7
		c0-0.1,0-0.2,0-0.2c0-0.1-0.1-0.1-0.1-0.2c-0.1-0.1-0.1-0.1-0.3-0.2c-0.1,0-0.2-0.1-0.2-0.1c0,0-0.1,0-0.1,0c0,0-0.1,0-0.1,0
		l-0.7-0.2c0,0,0,0,0.1,0c0,0,0.2,0,0.2,0c0.1,0,0.1,0,0.2-0.1c0,0,0,0,0,0c0,0-0.1,0.1-0.1,0.2l-0.1,0.2l-0.1,0.1l-0.8,2.1l-1-1.9
		c-0.4-0.8-0.9-1.5-1.2-2.3c-0.2-0.4-0.3-0.8-0.5-1.2l-0.4-1.2c-0.3-0.8-0.4-1.6-0.6-2.4c-0.2-0.8-0.3-1.6-0.4-2.4
		c-0.1-0.8-0.2-1.6-0.3-2.4l-0.2-2.4c-0.1-1.6-0.1-3.2-0.1-4.9c0-1.6,0.1-3.2,0.2-4.9c0.1-1.6,0.2-3.2,0.4-4.8
		c0-0.4,0.1-0.8,0.2-1.2c0.1-0.4,0.2-0.9,0.4-1.4c0.4-0.9,1.3-1.5,2-1.9c0.8-0.4,1.5-0.7,2-1.1c0.5-0.4,0.8-1,1-1.8l0.1,0.3
		c0-0.1-0.1-0.1-0.2-0.2c-0.1-0.1-0.1-0.1-0.2-0.2c-0.2-0.1-0.3-0.1-0.5-0.1c-0.2,0-0.3,0.1-0.5,0.2c-0.2,0.1-0.3,0.3-0.5,0.5
		L78.7,22c0.2-0.4,0.4-1,0.2-1.2c0-0.1-0.1-0.1-0.2-0.2c-0.1-0.1-0.2-0.1-0.3-0.1c-0.2,0-0.5,0-0.8,0l-0.1-0.4
		c0.4-0.1,0.7-0.2,1.1-0.3c0.2-0.1,0.3-0.2,0.5-0.3c0.1-0.1,0.3-0.2,0.3-0.4c0.1-0.1,0.1-0.3,0-0.5c0-0.2-0.2-0.3-0.3-0.5
		c-0.1-0.1-0.3-0.3-0.4-0.4L78.2,17.5z"/>
</g>
<path style="fill:none;stroke:#FFFFFF;stroke-miterlimit:10;" d="M10.8,73.3c0,0,0.4-6.9,3.6-8.4s4.8-4.1,10-5.5s8-1.6,10.5-4.5
	s6.2-2.6,10.2-7"/>
<path style="fill:none;stroke:#FFFFFF;stroke-width:0.5;stroke-miterlimit:10;" d="M26.9,58.8c0,0,1.6,1.9,2.7,2.2"/>
<g>
	<path style="fill:#FFFFFF;" d="M34.5,59.6c0-0.2,0-0.4,0.1-0.6c0-0.2,0.1-0.4,0.1-0.6c0-0.1,0.1-0.2,0.1-0.3c0-0.1,0.1-0.2,0.1-0.3
		c0.1-0.1,0.1-0.2,0.2-0.3c0.1-0.1,0.2-0.2,0.3-0.3l0.3-0.4l0.3,0.4c0.3,0.4,0.6,0.8,1,1.1c0.2,0.2,0.3,0.4,0.5,0.5
		c0.1,0.1,0.2,0.1,0.3,0.2c0.1,0.1,0.1,0.1,0.2,0.1l-0.4,0.1c0.4-0.5,0.8-1,1.1-1.5c0.3-0.5,0.6-1.1,0.5-1.6l-0.1-0.5l0.5,0.1
		c0.6,0.1,1.2,0.3,1.7,0.5c0.1,0.1,0.3,0.1,0.4,0.2c0.1,0.1,0.3,0.1,0.4,0.2c0.1,0.1,0.3,0.1,0.4,0.3l0.4,0.3l-0.5,0
		c0.5-0.5,1-1.1,1.4-1.7c0.2-0.3,0.4-0.6,0.5-0.9c0.1-0.2,0.1-0.3,0.2-0.5c0-0.2,0-0.3,0-0.5l0-0.4l0.4,0.1c0.2,0.1,0.5,0.1,0.7,0.2
		c0.2,0.1,0.5,0.2,0.7,0.3c0.2,0.1,0.5,0.2,0.7,0.3l0.6,0.4l-0.4,0.2c0-0.5,0-1,0-1.6c0-0.3,0-0.5,0.1-0.8l0.2-0.8l0-0.1l0.2,0
		c0.3,0,0.7,0,1,0c0.2,0,0.3,0.1,0.5,0.1c0.2,0,0.3,0.1,0.5,0.2l-0.3,0.1c0-0.5,0.1-1.1,0.2-1.6c0-0.3,0.1-0.5,0.1-0.8l0.2-0.8
		l0-0.2l0.2,0.1c0.8,0.5,1.7,1,2.5,1.6c0.4,0.3,0.8,0.6,1.2,0.9c0.2,0.2,0.4,0.3,0.5,0.5c0.2,0.2,0.3,0.4,0.4,0.6l-0.1,0
		c-0.2-0.4-0.4-0.8-0.5-1.2c-0.1-0.2-0.1-0.4-0.2-0.6c0-0.2-0.1-0.4,0-0.7l0,0h0c0.4,0,0.8,0,1.2,0.1c0.2,0,0.4,0.1,0.6,0.2
		c0.2,0.1,0.4,0.2,0.5,0.4c-0.1-0.2-0.3-0.3-0.5-0.4c-0.2-0.1-0.4-0.1-0.6-0.2c-0.4-0.1-0.8-0.1-1.2-0.1l0,0c-0.1,0.2,0,0.4,0.1,0.6
		c0.1,0.2,0.1,0.4,0.2,0.6c0.2,0.4,0.3,0.8,0.5,1.2l-0.1,0c-0.1-0.2-0.2-0.4-0.4-0.5c-0.2-0.2-0.4-0.3-0.5-0.5
		c-0.4-0.3-0.8-0.6-1.2-0.8c-0.8-0.5-1.7-1-2.5-1.5l0.2-0.1l-0.2,0.8c0,0.3-0.1,0.5-0.1,0.8c-0.1,0.5-0.1,1.1-0.1,1.6l0,0.3
		l-0.3-0.2c-0.1-0.1-0.2-0.1-0.4-0.2c-0.1,0-0.3-0.1-0.5-0.1c-0.3,0-0.6,0-1,0l0.2-0.1l-0.1,0.7c0,0.2,0,0.5,0,0.8c0,0.5,0,1,0,1.5
		l0,0.4l-0.4-0.2l-0.6-0.3c-0.2-0.1-0.4-0.2-0.6-0.3c-0.2-0.1-0.4-0.2-0.6-0.2c-0.2-0.1-0.4-0.1-0.7-0.2l0.3-0.3c0,0.2,0,0.5,0,0.7
		c0,0.2-0.1,0.4-0.2,0.6c-0.1,0.4-0.3,0.7-0.5,1.1c-0.4,0.7-0.9,1.3-1.4,1.9L42.7,58l-0.3-0.2l-0.3-0.2c-0.1-0.1-0.2-0.1-0.3-0.2
		c-0.1-0.1-0.2-0.1-0.3-0.2c-0.1-0.1-0.2-0.1-0.4-0.2c-0.5-0.2-1.1-0.3-1.6-0.4l0.4-0.4c0,0.2,0,0.4,0,0.6c0,0.2-0.1,0.4-0.1,0.5
		c-0.1,0.3-0.3,0.7-0.5,1c-0.4,0.6-0.7,1.1-1.2,1.7l-0.2,0.2l-0.2-0.1c-0.2-0.1-0.4-0.2-0.5-0.2c-0.1-0.1-0.2-0.2-0.3-0.3
		c-0.2-0.2-0.4-0.4-0.6-0.6c-0.4-0.4-0.7-0.8-1-1.2l0.7,0.1c0,0-0.1,0.1-0.1,0.1c0,0.1-0.1,0.1-0.1,0.2c-0.1,0.1-0.1,0.3-0.2,0.5
		c0,0.2-0.1,0.3-0.1,0.5c0,0.2,0,0.3-0.1,0.5L34.5,59.6z"/>
</g>
<line style="fill:none;stroke:#FFFFFF;stroke-width:0.5;stroke-miterlimit:10;" x1="25.3" y1="35.7" x2="25.8" y2="36.1"/>
<line style="fill:none;stroke:#FFFFFF;stroke-width:0.5;stroke-miterlimit:10;" x1="22.7" y1="35.6" x2="23.1" y2="35.7"/>
<line style="fill:none;stroke:#FFFFFF;stroke-width:0.5;stroke-miterlimit:10;" x1="25.1" y1="39.7" x2="25.7" y2="40.1"/>
<line style="fill:none;stroke:#FFFFFF;stroke-width:0.5;stroke-miterlimit:10;" x1="29" y1="40.1" x2="29.5" y2="40.2"/>
<line style="fill:none;stroke:#FFFFFF;stroke-width:0.5;stroke-miterlimit:10;" x1="32.8" y1="40" x2="33.2" y2="40.2"/>
<line style="fill:none;stroke:#FFFFFF;stroke-width:0.5;stroke-miterlimit:10;" x1="29.5" y1="36.1" x2="29.8" y2="36.5"/>
</svg>
