<?xml version="1.0" encoding="utf-8"?>
<!DOCTYPE svg PUBLIC "-//W3C//DTD SVG 1.1//EN" "http://www.w3.org/Graphics/SVG/1.1/DTD/svg11.dtd">
<svg version="1.1" xmlns="http://www.w3.org/2000/svg" xmlns:xlink="http://www.w3.org/1999/xlink" x="0px" y="0px"
	 width="2381.261px" height="864.087px" viewBox="0 0 2381.261 864.087" enable-background="new 0 0 2381.261 864.087"
	 xml:space="preserve">
<g id="Layer_9" display="none">
	<rect x="-126.739" y="-117.766" display="inline" width="2606" height="1090"/>
</g>
<g id="Layer_4">
	<g>
		<defs>

				<rect id="SVGID_1_" x="325.328" y="173.059" transform="matrix(-0.9996 -0.0272 0.0272 -0.9996 1142.7173 951.9325)" width="505.022" height="590.255"/>
		</defs>
		<clipPath id="SVGID_2_">
			<use xlink:href="#SVGID_1_"  overflow="visible"/>
		</clipPath>
		<path clip-path="url(#SVGID_2_)" fill="#FFFFFF" d="M800.336,458.259c-3.688-2.623-7.668-4.758-11.633-6.91l-11.98-6.318
			c-4.009-2.079-7.955-4.281-11.938-6.416c-3.887-2.312-7.908-4.385-11.664-6.928c-1.88-1.26-3.864-2.366-5.662-3.755l-5.404-4.169
			l-4.913-4.689c-1.612-1.579-3.081-3.333-4.631-4.998c-1.583-1.643-2.958-3.447-4.357-5.234c-1.366-1.812-2.898-3.504-4.102-5.433
			l-3.801-5.654c-1.265-1.888-2.274-3.935-3.421-5.894c-2.386-3.885-4.072-8.124-5.999-12.246c-1-2.047-1.567-4.27-2.37-6.399
			c-0.697-2.164-1.604-4.27-2.131-6.488c-1.029-4.402-2.169-8.939-3.104-13.245c-0.967-4.417-2.391-8.542-3.947-12.763
			c-0.806-2.084-1.704-4.137-2.561-6.2c-0.962-2.021-1.865-4.069-2.873-6.067c-2.021-4-4.129-7.959-6.433-11.809
			c-4.542-7.72-9.578-15.221-14.968-22.302l0.101,0.116c-0.361-0.391-0.711-0.749-1.097-1.251c-0.09-0.108-0.217-0.299-0.315-0.453
			c-0.081-0.137-0.158-0.301-0.221-0.456c-0.03-0.047-0.134-0.484-0.109-0.732c0.018-0.167,0.007-0.234,0.077-0.464
			c0.096-0.277,0.312-0.606,0.591-0.822c0.721-0.454,0.673-0.278,0.981-0.357c0.253-0.016,0.484,0.022,0.502,0.033
			c0.143,0.033,0.359,0.09,0.43,0.12c0.191,0.073,0.368,0.147,0.497,0.212c1.072,0.542,1.872,1.081,2.741,1.639
			c1.69,1.118,3.313,2.261,4.943,3.439l-2.092,2.634c-1.279-1.102-2.538-2.232-3.705-3.637c-0.57-0.751-1.179-1.444-1.555-2.742
			c-0.172-0.642-0.224-1.62,0.303-2.508c0.553-0.854,1.259-1.177,1.837-1.424c1.14-0.39,2.078-0.423,2.997-0.45
			c0.912-0.006,1.782,0.053,2.642,0.143c1.717,0.19,3.347,0.474,5.038,0.86l-1.042,3.367c-2.181-0.827-4.357-1.672-6.519-2.665
			c-1.079-0.517-2.154-1.038-3.236-1.69c-0.538-0.312-1.083-0.691-1.632-1.112c-0.541-0.529-1.172-0.871-1.667-2.214
			c-0.244-0.63-0.14-1.716,0.337-2.368c0.429-0.585,0.903-0.915,1.286-1.122c0.777-0.407,1.453-0.607,2.094-0.751
			c1.289-0.297,2.494-0.432,3.698-0.53c2.407-0.181,4.73-0.196,7.127-0.122l-0.384,3.742l-3.205-0.659
			c-0.531-0.091-1.08-0.343-1.619-0.509c-0.539-0.195-1.078-0.36-1.617-0.587l-1.62-0.932c-0.547-0.238-1.042-0.87-1.532-1.348
			c-0.534-0.439-0.832-1.234-1.143-1.942c-0.342-0.716-0.236-1.528-0.295-2.292c0.103-0.701,0.283-1.399,0.494-2.035
			c0.278-0.562,0.538-1.169,0.858-1.684c0.648-1.015,1.372-1.91,2.135-2.74c1.553-1.639,3.179-2.986,5.025-4.288l0.688,3.602
			c-1.287-0.322-2.56-0.574-3.883-1.077c-0.641-0.182-1.339-0.555-2.01-0.887c-0.326-0.126-0.715-0.469-1.061-0.723
			c-0.345-0.22-0.721-0.618-1.053-1.135c-0.355-0.4-0.555-1.157-0.647-1.846c-0.007-0.625,0.137-1.426,0.393-1.859
			c0.499-1.045,1.13-1.595,1.722-2.119c1.22-1.008,2.364-1.636,3.712-2.254l0.607,3.939c-1.079-0.16-2.159-0.29-3.234-0.494
			c-1.065-0.324-2.16-0.491-3.193-0.96c-1.055-0.4-2.081-0.873-3.051-1.497c-0.508-0.266-0.974-0.604-1.419-0.973
			c-0.446-0.37-0.941-0.676-1.324-1.113c-0.852-0.794-1.586-1.691-2.259-2.631c-0.629-0.972-1.186-1.979-1.631-3.032
			c-0.431-1.057-0.783-2.142-1.018-3.251c-0.119-0.557-0.22-1.111-0.285-1.683c-0.071-0.587-0.12-1.096-0.123-1.817l2.417,2.203
			l-3.481,0.207c-1.207-0.143-2.392-0.089-3.62-0.434l-1.832-0.505c-0.599-0.269-1.189-0.586-1.774-0.89
			c-0.611-0.255-1.087-0.793-1.619-1.203c-0.554-0.409-0.952-0.96-1.361-1.502c-0.448-0.524-0.756-1.109-1.034-1.707
			c-0.324-0.591-0.542-1.195-0.706-1.81c-0.404-1.221-0.571-2.456-0.635-3.657c-0.091-1.212-0.022-2.394,0.094-3.559
			c0.136-1.189,0.295-2.264,0.64-3.53l3.821,2.206l-1.086,1.009c-0.383,0.33-0.684,0.685-1.145,0.985l-1.402,0.884
			c-0.404,0.316-1.164,0.46-1.748,0.656c-0.578,0.233-1.368,0.179-2.11,0.118c-0.762,0.004-1.403-0.425-2.072-0.728
			c-0.644-0.344-1.024-0.828-1.518-1.271c-0.405-0.457-0.681-0.926-1.011-1.398c-1.085-1.878-1.603-3.719-2.034-5.543
			c-0.412-1.84-0.665-3.592-0.809-5.508l2.791,2.193c-1.916,0.299-3.814,0.647-5.814,0.727c-0.975,0.11-2.016,0.034-3.036,0.012
			c-1.012,0.003-2.098-0.241-3.152-0.412l-1.622-0.502c-0.54-0.167-1.086-0.511-1.62-0.774c-0.543-0.239-1.025-0.735-1.524-1.117
			c-0.492-0.409-0.883-0.983-1.293-1.49c-0.299-0.58-0.692-1.154-0.857-1.779c-0.226-0.617-0.357-1.237-0.434-1.86
			c-0.067-0.617-0.097-1.234-0.046-1.833c0.036-0.632,0.109-1.132,0.308-1.908l2.958,3.086c-1.229,0.271-2.403,0.591-3.761,0.727
			c-0.619,0.117-1.417,0.095-2.157,0.09c-0.347,0.021-0.896-0.122-1.328-0.204c-0.399-0.04-1.046-0.346-1.595-0.703
			c-0.524-0.261-1.147-1.122-1.429-1.769c-0.228-0.698-0.34-1.497-0.243-1.979c0.106-1.167,0.466-1.84,0.785-2.546
			c0.336-0.673,0.708-1.25,1.092-1.806c0.399-0.554,0.766-1.041,1.259-1.604l2.605,4.087c-1.287,0.363-2.559,0.743-3.942,0.961
			c-0.663,0.153-1.41,0.178-2.121,0.251c-0.72,0.061-1.505,0.006-2.275-0.042c-0.806-0.116-1.619-0.258-2.468-0.606
			c-0.84-0.328-1.682-0.866-2.406-1.561c-0.687-0.732-1.272-1.594-1.568-2.514c-0.163-0.453-0.281-0.912-0.347-1.375
			c-0.073-0.498-0.107-0.851-0.069-1.55l3.692,2.565l-1.954,0.87c-0.625,0.303-1.431,0.511-2.147,0.757
			c-0.328,0.136-0.842,0.192-1.275,0.269c-0.467,0.058-0.835,0.172-1.536,0.086c-0.627-0.075-1.194-0.06-2.081-0.615
			c-0.826-0.403-1.356-1.223-1.737-2.079c-0.188-0.651-0.309-1.472-0.249-1.95c0.041-0.501,0.087-1.069,0.208-1.447
			c0.198-0.87,0.474-1.592,0.765-2.294c0.597-1.403,1.244-2.591,2.042-3.881l3.517,3.748c-1.163,0.599-2.241,1.26-3.502,1.788
			c-0.609,0.278-1.214,0.559-1.917,0.78c-0.65,0.248-1.361,0.464-2.183,0.603c-0.367,0.095-0.811,0.146-1.322,0.143
			c-0.472,0.016-0.953,0.031-1.62-0.159c-0.575-0.095-1.268-0.428-1.9-0.938c-0.557-0.462-1.109-1.249-1.281-1.835
			c-0.263-0.672-0.316-1.22-0.348-1.758c-0.013-0.499,0.015-0.985,0.084-1.405c0.06-0.432,0.151-0.837,0.255-1.222
			c0.117-0.405,0.21-0.725,0.405-1.203l4.678,2.625c-2.281,2.871-5.266,3.467-7.647,3.84c-2.475,0.319-4.861,0.342-7.173,0.168
			c-4.637-0.318-9.09-1.132-13.512-2.173c-4.191-0.978-8.67-2.193-12.703-2.495c-2.033-0.334-4.161-0.388-6.295-0.431
			c-1.061-0.02-2.122-0.087-3.183-0.074l-3.197,0.185l-3.19,0.184l-3.178,0.438l-3.175,0.438l-3.15,0.662
			c-2.1,0.41-4.19,0.894-6.249,1.529c-2.075,0.548-4.138,1.166-6.164,1.911c-2.047,0.673-4.072,1.411-6.062,2.254
			c-2.016,0.775-4,1.63-5.955,2.56c-3.952,1.766-7.798,3.788-11.593,5.896c-3.798,2.111-7.511,4.385-11.184,6.74l-10.998,7.311
			c-1.823,1.226-3.657,2.45-5.65,3.604c-1.949,1.162-3.849,2.392-5.928,3.391c-2.022,1.071-4.067,2.111-6.284,2.908
			c-2.131,0.963-4.438,1.517-6.722,2.129c-4.614,0.983-9.311,1.322-13.801,1.247l-13.236-0.018
			c-4.447-0.082-8.733,0.243-13.077,0.412c-4.314,0.206-8.736,0.581-12.986,1.024l0.289-0.049l-6.708,1.154
			c-2.24,0.396-4.427,0.576-6.643,0.874c-4.432,0.573-8.819,0.954-13.258,1.353l-0.325,0.008c-0.385,0.046-0.769,0.028-1.194,0.171
			c-0.412,0.078-0.861,0.279-1.303,0.492c-0.898,0.416-1.81,1.114-2.686,1.871c-0.874,0.763-1.709,1.65-2.494,2.602
			c-0.394,0.472-0.771,0.964-1.137,1.459c-0.353,0.483-0.737,1.045-0.998,1.47l0.429-1.865l2.989,27.91l-0.298-0.956
			c1.944,3.924,3.71,7.88,5.394,11.944c0.835,2.045,1.508,4.273,2.263,6.402c0.618,1.936,1.217,2.734,2.474,4.202
			c1.244,1.318,2.755,2.567,4.41,3.723c1.636,1.169,3.386,2.272,5.187,3.328l10.94,6.671l5.495,2.905
			c1.81,1,3.812,1.665,5.706,2.516l2.88,1.216c0.448,0.186,1.021,0.453,1.375,0.569l1.515,0.532l6.063,2.139
			c2.039,0.8,3.975,1.161,5.962,1.751c1.975,0.539,3.944,1.146,5.956,1.342c2.004,0.227,4.007,0.771,6.012,0.754l6.008,0.014
			l11.952,0.023l-10.107,5.818c-4.523,2.602-9.014,5.1-13.714,7.419l-3.507,1.756l-3.749,1.546l-3.6,1.464l-3.602,1.342
			c-2.511,0.817-4.501,1.993-6.724,3.003c-2.187,0.964-4.285,2.433-6.434,3.617c-2.168,1.204-4.106,2.787-6.171,4.156l-1.372,0.955
			l-1.449,1.265c-0.935,0.847-1.995,1.668-2.83,2.538l-5.193,5.402c-1.754,1.948-3.911,3.619-5.905,5.397
			c-2.034,1.738-3.832,3.134-5.669,4.887c-1.816,1.689-3.566,3.453-5.206,5.279c-1.626,1.82-3.17,3.725-4.337,5.634
			c-0.588,0.94-1.052,1.928-1.212,2.622c-0.097,0.208-0.152,0.907-0.232,1.553c-0.09,0.666-0.109,1.216-0.143,1.78
			c-0.099,2.25-0.076,4.626,0.599,6.472c0.642,1.885,1.742,3.22,3.262,4.162l-1.399-0.352c0.376-0.031,1.143-0.088,1.737-0.249
			c0.643-0.107,1.276-0.285,1.901-0.524c0.642-0.178,1.253-0.43,1.837-0.756c0.583-0.316,1.232-0.516,1.75-0.953l1.649-1.141
			c0.52-0.417,0.968-0.936,1.458-1.395c0.465-0.487,1.014-0.894,1.365-1.498l1.192-1.682l0.659-0.937l0.623-0.993l1.248-1.988
			l1.253-1.986l0.624-0.997l0.849-1.062l1.72-2.104c0.513-0.746,1.369-1.22,2.047-1.83l1.085-0.86l0.949-0.649l1.896-1.285
			l7.901-5.354l-3.507,8.847c-0.14,0.348-0.315,1.526-0.226,2.353c0.044,0.91,0.231,1.849,0.59,2.75
			c0.605,1.773,1.936,3.812,3.238,4.583c1.61,1.204,3.693,2.21,5.864,3.104c2.183,0.909,4.469,1.711,6.847,2.654
			c1.213,0.512,2.392,0.947,3.792,1.806c0.347,0.21,0.75,0.533,1.118,0.812l0.067,0.054c-0.486-0.386-0.123-0.096-0.223-0.178
			l0.021,0.015l0.095,0.067l0.187,0.134l0.38,0.266l0.75,0.524l0.535,0.191c1.429,0.619,3.863,1.207,6.083,1.365
			c4.571,0.466,9.409,0.198,14.195-0.196c4.807-0.442,9.597-1.127,14.446-1.906l14.613-2.27c4.874-0.783,9.806-1.335,14.717-1.967
			c4.908-0.645,9.936-0.871,14.895-1.325l0.531-0.046l0.563,0.22c1.013,0.399,1.852,0.789,2.751,1.252
			c0.887,0.455,1.756,0.97,2.625,1.558c0.861,0.583,1.723,1.281,2.544,2.186c0.412,0.437,0.81,0.994,1.159,1.604
			c0.353,0.644,0.617,1.414,0.746,2.268l0.122,0.829l-0.394,0.708c-0.476,0.856-0.845,1.439-1.34,2.074
			c-0.458,0.634-0.948,1.228-1.498,1.775c-0.513,0.581-1.071,1.12-1.695,1.595c-0.616,0.481-1.177,1.03-1.884,1.394l-2.052,1.181
			l-2.242,0.809c-1.486,0.587-3.106,0.564-4.656,0.826l1.703-4.733c0.588,0.534,1.012,0.986,1.491,1.511
			c0.455,0.513,0.896,1.073,1.31,1.659c0.418,0.609,0.806,1.276,1.144,2.033c0.164,0.404,0.302,0.85,0.434,1.274
			c0.096,0.5,0.16,1.025,0.186,1.55c-0.063,0.589-0.104,1.201-0.322,1.762c-0.255,0.541-0.526,1.182-0.902,1.565
			c-0.373,0.387-0.792,0.83-1.192,1.097l-1.189,0.669c-0.412,0.229-0.747,0.282-1.132,0.421c-0.363,0.112-0.747,0.251-1.102,0.326
			l-2.067,0.35l-0.233-5.309c2.014,0.097,3.87,0.249,5.956,0.68c0.524,0.119,1.048,0.243,1.636,0.451
			c0.589,0.227,1.188,0.396,2.073,1.115c0.41,0.353,0.988,0.967,1.236,2c0.106,0.467,0.079,1-0.006,1.478
			c-0.1,0.37-0.247,0.712-0.417,1.043c-0.621,0.968-1.232,1.416-1.717,1.768c-1.028,0.723-1.939,1.152-2.859,1.574
			c-0.917,0.419-1.813,0.774-2.715,1.113c-1.796,0.683-3.588,1.242-5.377,1.807l1.103-4.215c0.381,0.425,0.588,0.706,0.847,1.064
			c0.237,0.35,0.472,0.699,0.674,1.071c0.426,0.731,0.758,1.549,1.021,2.413c0.231,0.889,0.365,1.843,0.311,2.831
			c-0.068,1-0.342,1.97-0.747,2.875c-0.449,0.867-0.982,1.648-1.614,2.271c-0.603,0.699-1.289,1.11-1.946,1.65
			c-1.355,0.873-2.733,1.51-4.122,2.061l-0.644-4.823c1.228,0.146,2.199,0.369,3.315,0.761c0.538,0.158,1.099,0.448,1.642,0.693
			c0.562,0.374,1.111,0.604,1.655,1.165c0.549,0.457,1.039,1.092,1.424,1.859c0.374,0.706,0.529,1.644,0.559,2.408
			c-0.083,0.717-0.108,1.623-0.384,2.162c-0.25,0.582-0.478,1.252-0.788,1.733l-0.953,1.414c-0.316,0.496-0.696,0.808-1.039,1.222
			c-0.697,0.808-1.428,1.53-2.186,2.166c-1.475,1.402-3.069,2.492-4.614,3.7l-0.19-4.017c0.813,0.525,1.232,0.939,1.752,1.487
			c0.479,0.541,0.913,1.122,1.25,1.777c0.38,0.624,0.594,1.359,0.793,2.059c0.131,0.721,0.273,1.452,0.215,2.16
			c0.019,0.73-0.094,1.408-0.258,2.063c-0.116,0.691-0.362,1.283-0.604,1.88c-0.226,0.617-0.5,1.182-0.824,1.688
			c-0.323,0.519-0.601,1.089-0.957,1.554c-0.725,0.917-1.399,1.919-2.21,2.703c-0.784,0.832-1.557,1.679-2.413,2.388
			c-1.634,1.545-3.406,2.833-5.153,4.185l-2.045-4.03c1.656-0.511,3.248-0.92,4.931-1.268c1.689-0.322,3.358-0.636,5.38-0.565
			c0.504,0.02,1.065,0.082,1.694,0.251c0.637,0.218,1.452,0.446,2.212,1.438c0.723,0.947,0.775,2.263,0.584,2.926
			c-0.164,0.754-0.428,1.287-0.688,1.754c-1.067,1.839-2.267,2.99-3.471,4.231l0.469-2.441c0.299,0.741,0.324,1.188,0.445,1.763
			c0.091,0.543,0.065,1.066,0.081,1.604c0.034,1.065-0.288,2.063-0.465,3.081l-1.228,2.756l-1.739,2.307
			c-0.541,0.83-1.32,1.307-1.996,1.944c-0.703,0.586-1.381,1.233-2.115,1.76l-4.596,2.719l-1.943-3.765
			c1.409-0.702,2.723-1.256,4.309-1.672c0.813-0.18,1.587-0.394,2.707-0.31c0.465-0.025,1.236,0.208,1.835,0.476
			c0.722,0.453,1.344,1.06,1.587,1.8c0.547,1.448,0.264,2.464,0.092,3.294c-0.166,0.941-0.53,1.54-0.794,2.31
			c-0.307,0.714-0.667,1.337-0.997,2.006c-0.35,0.665-0.573,1.086-0.846,1.716c-2.064,4.684-3.019,10.029-1.828,14.823
			c0.282,1.197,0.704,2.365,1.287,3.442c0.479,1.06,1.334,2.332,1.971,3.539c1.375,2.462,2.706,4.987,3.652,7.836
			c0.455,1.43,0.819,2.943,0.851,4.576c0.096,1.609-0.253,3.328-0.938,4.847c-0.649,1.571-1.758,2.783-2.854,3.898
			c-1.147,1.055-2.387,1.909-3.651,2.686l-0.571-3.374c0.533,0.129,0.862,0.246,1.263,0.412c0.383,0.151,0.747,0.355,1.116,0.556
			c0.705,0.453,1.412,0.97,1.964,1.695c1.174,1.394,1.615,3.342,1.439,4.951c-0.005,0.856-0.279,1.563-0.445,2.333
			c-0.281,0.684-0.5,1.426-0.836,2.057c-0.345,0.625-0.645,1.3-1.032,1.879l-1.147,1.755l-0.42-2.458
			c0.752,0.563,1.169,1.086,1.723,1.634c0.51,0.551,0.905,1.16,1.358,1.74c0.925,1.149,1.437,2.511,2.155,3.761
			c0.316,0.645,0.481,1.343,0.729,2.012l0.669,2.031c0.276,0.666,0.291,1.383,0.421,2.073l0.314,2.09
			c0.088,0.696,0.234,1.391,0.281,2.089l-0.038,2.089l-0.083,4.169c-0.167,1.364-0.45,2.712-0.672,4.072l-0.717,4.061l-1.607-2.007
			c0.949,0.021,1.562,0.21,2.302,0.446c0.698,0.259,1.354,0.614,1.964,1.052c0.561,0.469,1.151,0.95,1.559,1.555
			c0.479,0.564,0.796,1.19,1.099,1.831c0.349,0.628,0.442,1.295,0.669,1.942c0.203,0.652,0.22,1.299,0.33,1.948
			c0.125,0.659,0.084,1.285,0.101,1.924c-0.004,0.637,0.037,1.28-0.055,1.897c-0.129,1.234-0.224,2.485-0.499,3.673
			c-0.227,1.208-0.463,2.41-0.822,3.566c-0.337,1.161-0.607,2.352-1.037,3.478l-1.186,3.405l-2.435-1.419
			c0.576-0.625,1.092-1.14,1.736-1.632c0.625-0.489,1.282-0.966,2.124-1.288c0.384-0.197,0.827-0.327,1.332-0.389
			c0.466-0.122,0.98-0.103,1.523,0.025c0.555,0.05,1.004,0.295,1.433,0.605l0.637,0.445l0.422,0.535
			c0.259,0.363,0.573,0.733,0.756,1.107l0.451,1.12c0.347,0.757,0.453,1.491,0.61,2.228c0.381,1.486,0.386,2.925,0.545,4.382
			c0.087,0.729,0.03,1.439,0.054,2.158l0.017,2.153c-0.002,1.434-0.134,2.847-0.197,4.271c-0.109,2.847-0.512,5.646-0.756,8.472
			l-1.829-1.09c1.746-1.129,3.494-2.053,5.414-2.796c0.958-0.355,1.942-0.669,2.964-0.887c0.498-0.134,1.051-0.156,1.575-0.23
			c0.515-0.103,1.088-0.015,1.631-0.019c0.543-0.023,1.106,0.179,1.659,0.299c0.56,0.084,1.057,0.44,1.574,0.705
			c0.55,0.234,0.912,0.708,1.331,1.112c0.451,0.387,0.71,0.88,0.971,1.371c0.271,0.488,0.577,0.971,0.675,1.491l0.433,1.535
			c0.187,1.024,0.238,2.046,0.354,3.068l-0.818-0.938c1.377,0.318,2.49,0.853,3.599,1.545c1.093,0.682,2.043,1.582,2.853,2.586
			c0.803,1.017,1.396,2.167,1.848,3.362c0.217,0.596,0.332,1.221,0.5,1.829c0.199,0.609,0.169,1.238,0.265,1.86
			c0.203,1.245,0.01,2.473,0.012,3.706l-0.275,1.813c-0.107,0.601-0.145,1.22-0.324,1.799c-0.325,1.166-0.577,2.36-0.967,3.501
			l-1.226,3.396l-0.566-1.04c1.86,0.44,3.564,1.121,5.204,2.054c0.812,0.463,1.589,1.005,2.291,1.651
			c0.347,0.33,0.72,0.629,1.006,1.028c0.285,0.388,0.645,0.72,0.852,1.173c0.213,0.437,0.515,0.835,0.644,1.306
			c0.145,0.47,0.31,0.934,0.416,1.408l0.126,1.452c0.036,0.48-0.088,0.952-0.126,1.43c-0.04,0.973-0.475,1.826-0.718,2.734
			c-0.364,0.856-0.814,1.665-1.221,2.496l-0.509-0.907c1.272,0.062,2.486,0.24,3.713,0.463c1.217,0.249,2.437,0.545,3.604,0.995
			c1.171,0.441,2.34,0.971,3.35,1.766c0.536,0.364,1.021,0.783,1.418,1.313c0.476,0.464,0.785,1.041,1.039,1.656
			c0.351,0.579,0.404,1.238,0.496,1.889c0.163,0.651,0.045,1.291-0.045,1.923c-0.062,0.648-0.167,1.277-0.435,1.851l-0.664,1.765
			l-0.943,1.609c-0.333,0.52-0.585,1.097-0.986,1.573l-2.252,2.918l-0.599-0.48c0.619-0.702,1.262-1.359,2.215-1.738
			c0.462-0.218,1.161-0.145,1.58,0.232c0.423,0.383,0.595,0.858,0.727,1.305c0.269,0.907,0.297,1.811,0.307,2.7
			c0.039,0.898-0.061,1.78-0.096,2.664l-0.037-0.166c1.506,2.928,2.694,5.973,3.696,9.085c0.978,3.116,1.759,6.302,2.151,9.55
			c0.115,0.808,0.139,1.626,0.213,2.437c0.091,0.813,0.087,1.631,0.074,2.447c-0.025,0.817,0.04,1.636-0.088,2.447l-0.247,2.435
			l-0.524,2.393c-0.131,0.809-0.47,1.558-0.731,2.328c-0.283,0.766-0.514,1.55-0.945,2.251l-1.149,2.155l1.115-2.167
			c0.419-0.709,0.637-1.5,0.907-2.263c0.249-0.771,0.579-1.523,0.691-2.334l0.483-2.387l0.219-2.423
			c0.106-0.807,0.029-1.624,0.042-2.433c0.003-0.813-0.006-1.623-0.109-2.43c-0.084-0.808-0.125-1.619-0.247-2.419
			c-0.949-6.418-3.109-12.653-6.078-18.381l-0.039-0.075l0.002-0.095c0.018-0.866,0.107-1.742,0.053-2.604
			c-0.014-0.858-0.072-1.739-0.313-2.514c-0.231-0.813-0.709-1.386-1.414-1.06c-0.688,0.271-1.339,0.91-1.853,1.528l-0.592-0.48
			l2.165-2.892c0.38-0.471,0.612-1.027,0.925-1.538l0.889-1.551l0.588-1.665c0.252-0.546,0.331-1.118,0.374-1.691
			c0.075-0.571,0.178-1.145,0.019-1.695c-0.088-0.554-0.132-1.124-0.447-1.603c-0.214-0.513-0.482-1.003-0.908-1.394
			c-0.337-0.455-0.774-0.821-1.262-1.141c-0.905-0.691-2.003-1.174-3.112-1.568c-1.102-0.408-2.267-0.67-3.436-0.894
			c-1.168-0.192-2.375-0.351-3.536-0.388l-0.917-0.029l0.407-0.882c0.363-0.783,0.776-1.55,1.101-2.34
			c0.197-0.821,0.599-1.617,0.607-2.45c0.023-0.418,0.135-0.837,0.09-1.243l-0.121-1.221c-0.098-0.393-0.247-0.772-0.364-1.162
			c-0.108-0.392-0.38-0.718-0.558-1.083c-0.165-0.372-0.491-0.654-0.738-0.984c-0.24-0.331-0.58-0.592-0.885-0.873
			c-0.615-0.558-1.327-1.037-2.078-1.444c-1.479-0.818-3.151-1.454-4.781-1.811l-0.86-0.186l0.298-0.856l1.134-3.312
			c0.368-1.104,0.58-2.245,0.878-3.363c0.166-0.557,0.182-1.136,0.277-1.706l0.235-1.704c-0.031-1.13,0.142-2.282-0.065-3.384
			c-0.097-0.549-0.07-1.135-0.257-1.653c-0.158-0.53-0.262-1.078-0.461-1.591c-0.405-1.017-0.916-1.978-1.602-2.817
			c-0.689-0.826-1.491-1.568-2.418-2.128c-0.903-0.555-1.978-1.016-2.915-1.22l-0.711-0.153l-0.11-0.784
			c-0.125-0.906-0.177-1.838-0.35-2.723l-0.384-1.265c-0.082-0.455-0.335-0.783-0.537-1.15c-0.196-0.363-0.385-0.743-0.71-0.977
			c-0.293-0.255-0.516-0.608-0.899-0.732c-0.355-0.157-0.655-0.424-1.074-0.454c-0.403-0.074-0.767-0.241-1.206-0.2
			c-0.431,0.017-0.838-0.069-1.281,0.03c-0.439,0.079-0.874,0.09-1.311,0.215c-0.879,0.202-1.743,0.497-2.607,0.825
			c-1.706,0.689-3.398,1.619-4.905,2.627l-2.004,1.34l0.172-2.429c0.198-2.784,0.558-5.568,0.621-8.346
			c0.035-1.39,0.144-2.78,0.125-4.162l-0.05-2.065c-0.031-0.685,0.013-1.39-0.081-2.056c-0.167-1.336-0.194-2.732-0.554-3.976
			c-0.138-0.637-0.245-1.3-0.521-1.821l-0.337-0.834c-0.125-0.254-0.311-0.402-0.446-0.622l-0.21-0.302
			c-0.092-0.038-0.173-0.077-0.246-0.128c-0.146-0.117-0.296-0.229-0.475-0.197c-0.151-0.049-0.329-0.08-0.556,0.009
			c-0.203,0.011-0.433,0.073-0.674,0.213c-0.475,0.177-0.982,0.538-1.452,0.924c-0.476,0.36-0.944,0.856-1.311,1.265l-4.592,5.101
			l2.154-6.515l1.092-3.303c0.398-1.096,0.629-2.219,0.94-3.329c0.323-1.107,0.52-2.228,0.716-3.349
			c0.246-1.118,0.3-2.23,0.406-3.342c0.074-0.563,0.02-1.1,0.016-1.646c-0.022-0.537,0.017-1.101-0.099-1.606
			c-0.105-0.51-0.115-1.063-0.287-1.536c-0.178-0.455-0.244-0.991-0.499-1.391c-0.216-0.427-0.423-0.857-0.727-1.188
			c-0.245-0.394-0.613-0.645-0.942-0.934c-0.355-0.251-0.737-0.458-1.151-0.609c-0.385-0.127-0.924-0.243-1.162-0.244l-1.936,0.003
			l0.329-2.009l0.636-3.832c0.197-1.274,0.459-2.552,0.606-3.823l0.039-3.833l0.021-1.918c-0.045-0.629-0.184-1.248-0.273-1.871
			l-0.293-1.865c-0.124-0.616-0.125-1.269-0.381-1.839l-0.608-1.763c-0.219-0.578-0.354-1.197-0.636-1.743
			c-0.637-1.041-1.073-2.233-1.847-3.154c-0.375-0.466-0.704-0.987-1.104-1.412c-0.401-0.38-0.85-0.887-1.175-1.119l-1.37-0.979
			l0.95-1.48l0.988-1.547c0.336-0.517,0.559-1.057,0.849-1.579c0.494-1.054,0.867-2.14,0.918-3.112
			c-0.006-0.234,0.067-0.499,0-0.702c-0.051-0.212-0.023-0.45-0.108-0.637c-0.095-0.181-0.094-0.405-0.228-0.563
			c-0.101-0.173-0.181-0.357-0.336-0.506c-0.238-0.332-0.621-0.591-1.007-0.85c-0.21-0.107-0.419-0.223-0.647-0.311
			c-0.204-0.093-0.502-0.175-0.607-0.204l-4.172-1.109l3.602-2.264c1.081-0.68,2.106-1.403,2.984-2.221
			c0.81-0.854,1.608-1.725,1.988-2.739c0.906-1.959,0.686-4.324-0.126-6.71c-0.809-2.383-2.067-4.766-3.397-7.096
			c-0.66-1.227-1.379-2.231-2.08-3.667c-0.738-1.337-1.275-2.794-1.641-4.266c-0.395-1.472-0.612-2.989-0.656-4.487
			c-0.096-1.504,0.016-3.002,0.194-4.475c0.371-2.95,1.209-5.772,2.373-8.489c0.268-0.639,0.68-1.439,0.963-1.996
			c0.272-0.571,0.602-1.149,0.833-1.705c0.17-0.53,0.512-1.157,0.542-1.59c0.156-0.479,0.094-0.924,0.118-0.752
			c0.071,0.03,0.115,0.238,0.295,0.261c-0.049,0.071,0.073-0.014-0.163,0.011c-0.262-0.041-0.854,0.074-1.373,0.207
			c-1.085,0.283-2.327,0.811-3.375,1.35l-1.943-3.765l4.015-2.43c0.616-0.451,1.142-0.984,1.718-1.465
			c0.532-0.513,1.233-0.931,1.578-1.542l1.283-1.698c0.247-0.622,0.511-1.229,0.799-1.834c0.055-0.628,0.306-1.255,0.258-1.863
			c-0.023-0.294,0.01-0.621-0.042-0.897l-0.144-0.668l-0.349-1.608l0.819-0.833c1.046-1.067,2.141-2.256,2.674-3.244
			c0.144-0.233,0.212-0.453,0.216-0.483c0.025-0.121-0.062,0.319,0.205,0.618c0.292,0.304,0.289,0.235,0.172,0.21
			c-0.151-0.033-0.4-0.077-0.7-0.082c-1.222-0.042-2.77,0.206-4.245,0.518c-1.482,0.316-3.026,0.732-4.458,1.182l-11.886,3.751
			l9.836-7.782c1.609-1.268,3.265-2.494,4.709-3.885c0.779-0.656,1.424-1.392,2.1-2.11c0.712-0.699,1.205-1.491,1.803-2.236
			c0.291-0.376,0.458-0.78,0.7-1.168c0.254-0.386,0.434-0.777,0.563-1.167c0.154-0.389,0.327-0.777,0.362-1.147
			c0.098-0.377,0.164-0.748,0.129-1.087c0.055-0.359-0.052-0.669-0.091-0.997c-0.111-0.3-0.163-0.625-0.359-0.899
			c-0.145-0.291-0.359-0.562-0.588-0.818c-0.195-0.229-0.572-0.528-0.652-0.58l-2.801-1.928l2.608-2.092
			c1.401-1.117,2.917-2.17,4.148-3.38c0.684-0.577,1.28-1.184,1.804-1.812c0.253-0.311,0.61-0.609,0.781-0.925l0.619-0.918
			c0.202-0.306,0.222-0.562,0.372-0.832c0.183-0.303,0.023-0.396,0.128-0.592c-0.043-0.136-0.014-0.193-0.073-0.292
			c-0.053-0.078-0.101-0.208-0.297-0.344c-0.083-0.157-0.445-0.28-0.65-0.447c-0.318-0.119-0.585-0.288-0.958-0.386
			c-0.653-0.237-1.531-0.416-2.163-0.488l-9.24-1.028l8.591-3.795l1.615-0.713c0.507-0.258,0.952-0.563,1.44-0.827
			c0.35-0.336,0.854-0.611,1.1-0.959c0.337-0.323,0.53-0.66,0.715-0.982c0.285-0.647,0.335-1.304,0.104-2.138
			c-0.145-0.417-0.304-0.849-0.561-1.275c-0.12-0.214-0.264-0.423-0.402-0.628c-0.132-0.183-0.334-0.435-0.398-0.507l-2.723-2.973
			l3.821-1.243c1.711-0.559,3.431-1.113,5.065-1.749c0.815-0.318,1.623-0.643,2.376-0.998c0.747-0.343,1.498-0.735,1.965-1.085
			c0.274-0.161,0.351-0.351,0.243-0.143c-0.085,0.12-0.132,0.252-0.155,0.408c-0.088,0.254-0.056,0.545-0.01,0.793
			c0.128,0.589,0.421,0.816,0.479,0.883c0.181,0.121-0.102-0.055-0.369-0.129c-0.278-0.097-0.65-0.184-1.023-0.265
			c-1.521-0.309-3.341-0.462-5-0.52l-25.291-0.893l25.058-4.416l1.468-0.256c0.233-0.052,0.406-0.136,0.613-0.193
			c0.176-0.073,0.451-0.11,0.55-0.197c0.121-0.084,0.241-0.151,0.375-0.205c0.095-0.065,0.055-0.104,0.127-0.117
			c0.07-0.024-0.062-0.013-0.006,0.024c0.006,0.017-0.05-0.001,0.006,0.007c-0.031-0.068-0.043-0.135-0.04-0.228
			c-0.063-0.139-0.096-0.268-0.148-0.424c-0.16-0.333-0.365-0.7-0.625-1.085c-0.278-0.381-0.58-0.766-0.913-1.147
			c-0.327-0.36-0.729-0.773-1.031-1.045l-3.837-3.438l5.54-1.295c1.065-0.249,2.218-0.157,3.22-0.597l1.536-0.54l1.415-0.837
			c0.5-0.229,0.892-0.653,1.332-0.99c0.45-0.329,0.851-0.722,1.218-1.153c0.411-0.395,0.763-0.83,1.091-1.288
			c0.338-0.409,0.664-0.979,0.846-1.284l-0.273,1.537c-0.03-0.042-0.034-0.128-0.117-0.283c-0.108-0.164-0.225-0.359-0.434-0.575
			c-0.395-0.426-0.934-0.896-1.569-1.316c-0.632-0.423-1.314-0.829-2.034-1.2c-0.708-0.36-1.511-0.724-2.178-0.983l1.088,0.17
			c-4.834,0.46-9.654,0.683-14.503,1.335c-4.848,0.643-9.691,1.194-14.537,1.986l-14.555,2.302
			c-4.861,0.798-9.818,1.522-14.812,1.991c-5.007,0.424-10.043,0.744-15.278,0.236c-1.306-0.108-2.63-0.318-3.972-0.597
			c-0.659-0.091-1.355-0.36-2.034-0.538c-0.636-0.151-1.415-0.471-2.209-0.859l-1.149-0.57l-0.76-0.525l-1.357-0.97
			c-0.696-0.446-1.829-0.908-2.883-1.335c-2.194-0.863-4.557-1.685-6.922-2.66c-2.371-0.983-4.783-2.077-7.128-3.805
			c-2.792-2.046-4.132-4.423-5.23-7.229c-0.531-1.372-0.865-2.888-0.94-4.428c-0.058-1.613-0.046-2.946,0.664-4.915l4.396,3.49
			l-1.985,1.355l-0.987,0.677l-0.744,0.613c-0.464,0.445-1.081,0.7-1.438,1.282l-1.24,1.539l-0.636,0.76l-0.624,0.993l-1.241,1.994
			l-1.247,1.99l-0.617,0.997l-0.689,0.979l-1.522,2.152c-0.461,0.75-1.16,1.332-1.778,1.968c-0.641,0.617-1.243,1.278-1.936,1.843
			l-2.199,1.545c-0.712,0.556-1.567,0.874-2.355,1.293c-0.799,0.43-1.626,0.771-2.496,1.03c-0.846,0.313-1.717,0.561-2.618,0.722
			c-0.93,0.21-1.726,0.316-2.907,0.375l-0.713,0.03l-0.69-0.382c-2.953-1.651-5.153-4.535-6.121-7.538
			c-1.029-3.024-1.01-5.896-0.905-8.731c0.042-0.712,0.083-1.44,0.166-2.048c0.083-0.622,0.083-1.208,0.339-2.24
			c0.445-1.797,1.163-3.123,1.905-4.362c1.506-2.47,3.215-4.553,4.993-6.558c1.778-1.99,3.641-3.868,5.566-5.68
			c1.863-1.801,4.1-3.567,5.951-5.168c1.819-1.643,3.745-3.109,5.426-4.982l5.454-5.684c0.946-0.968,1.921-1.722,2.878-2.593
			l1.446-1.27c0.819-0.646,1.16-0.834,1.761-1.271c2.191-1.471,4.251-3.149,6.561-4.449c2.323-1.298,4.447-2.795,6.947-3.923
			c2.436-1.132,4.918-2.5,7.29-3.276l3.6-1.351l3.514-1.445l3.354-1.385l3.359-1.696c4.491-2.228,8.95-4.725,13.303-7.247
			l1.845,5.841l-6.845,0.015c-2.283,0.005-4.488-0.558-6.735-0.82c-2.267-0.232-4.407-0.874-6.564-1.46
			c-2.129-0.614-4.415-1.089-6.373-1.856l-6.07-2.121l-1.515-0.531c-0.664-0.227-1.059-0.43-1.6-0.645l-3.043-1.286
			c-2.012-0.906-4.094-1.614-6.042-2.687l-5.86-3.12l-10.996-6.743c-1.891-1.12-3.766-2.309-5.616-3.635
			c-1.845-1.307-3.671-2.779-5.364-4.591c-1.64-1.684-3.347-4.593-3.899-6.812c-0.685-1.905-1.232-3.794-2.011-5.722
			c-1.582-3.854-3.302-7.733-5.151-11.494l-0.249-0.512l-0.046-0.448l-2.941-28.202l-0.107-1.008l0.536-0.861
			c0.457-0.736,0.85-1.286,1.3-1.908c0.441-0.599,0.897-1.185,1.378-1.76c0.95-1.143,1.986-2.247,3.162-3.271
			c1.183-1.017,2.453-2.002,4.019-2.752c0.778-0.373,1.597-0.728,2.514-0.932c0.888-0.257,1.87-0.321,2.844-0.347l-0.319,0.009
			c4.326-0.382,8.718-0.745,13.022-1.292c2.147-0.283,4.356-0.464,6.458-0.828l6.312-1.065l0.289-0.051
			c4.528-0.454,8.909-0.814,13.407-1.018c4.474-0.164,8.997-0.478,13.385-0.382l13.238,0.058c4.332,0.086,8.487-0.235,12.501-1.069
			c1.981-0.538,3.979-0.986,5.888-1.856c1.949-0.683,3.836-1.641,5.717-2.631c1.915-0.902,3.722-2.074,5.566-3.158
			c1.836-1.057,3.681-2.273,5.52-3.501l11.072-7.315c3.765-2.398,7.585-4.724,11.51-6.89c3.922-2.166,7.902-4.243,12.016-6.067
			c2.038-0.959,4.106-1.846,6.211-2.653c2.075-0.87,4.2-1.636,6.35-2.339c2.118-0.771,4.288-1.41,6.479-1.988
			c2.166-0.658,4.375-1.163,6.608-1.595l3.334-0.686l3.378-0.457l3.385-0.46l3.415-0.191l3.414-0.181
			c1.144-0.012,2.285,0.059,3.433,0.084c2.278,0.052,4.561,0.121,6.888,0.493c4.79,0.447,8.849,1.61,13.246,2.642
			c4.16,0.992,8.417,1.776,12.59,2.068c2.084,0.166,4.137,0.13,6.032-0.107c1.911-0.194,3.558-0.935,4.042-1.636l10.445-14.978
			l-5.764,17.606l-0.177,0.542c-0.053,0.204-0.099,0.404-0.122,0.577c-0.037,0.183-0.024,0.317-0.033,0.424
			c0.006,0.08,0.011,0.14-0.008,0.044c-0.019,0-0.133-0.283-0.265-0.346c-0.134-0.141-0.308-0.15-0.255-0.174
			c-0.078,0.02,0.056,0.015,0.2,0c0.102,0.019,0.265,0.011,0.499-0.056c0.394-0.054,0.856-0.185,1.356-0.373
			c0.478-0.137,0.987-0.369,1.496-0.6c1.011-0.401,2.042-1.021,3.065-1.53l8.616-4.303l-5.099,8.05
			c-0.593,0.933-1.208,2.045-1.642,3.05c-0.216,0.506-0.405,1.017-0.498,1.423c-0.088,0.247-0.052,0.344-0.088,0.489
			c-0.033,0.168,0.037,0.009-0.05-0.011c-0.028-0.305-0.321-0.466-0.479-0.642c-0.355-0.122-0.246-0.113-0.222-0.119
			c-0.048,0.051,0.226-0.013,0.404-0.047c0.211-0.049,0.366-0.011,0.646-0.125c0.518-0.194,1.004-0.281,1.558-0.544l1.64-0.715
			l3.695,2.565c0.013-0.081-0.005,0.188,0.029,0.301c0.016,0.146,0.055,0.292,0.102,0.417c0.071,0.278,0.231,0.437,0.364,0.626
			c0.18,0.147,0.381,0.31,0.694,0.43c0.295,0.137,0.704,0.209,1.123,0.281c0.458,0.019,0.916,0.072,1.429,0.028
			c0.521-0.063,1.016-0.046,1.566-0.175c1.063-0.156,2.171-0.474,3.269-0.768l8.273-2.207l-5.666,6.295
			c-0.273,0.305-0.613,0.744-0.896,1.126c-0.275,0.396-0.533,0.794-0.719,1.158c-0.063,0.16-0.2,0.374-0.209,0.481
			c-0.05,0.137-0.095,0.27-0.072,0.25c-0.044,0.097,0.031-0.137-0.083-0.266c0.02-0.197-0.351-0.445-0.334-0.472
			c-0.041-0.081-0.205-0.048-0.008-0.046c0.137,0.001,0.148,0.078,0.383,0.062c0.418-0.021,0.782,0.037,1.309-0.061
			c0.954-0.075,2.023-0.354,3.063-0.567l3.709-0.768l-0.751,3.854c-0.023,0.122-0.119,0.534-0.119,0.825
			c-0.037,0.318-0.012,0.634,0.012,0.927c0.035,0.299,0.09,0.582,0.187,0.833c0.044,0.287,0.243,0.462,0.324,0.72
			c0.198,0.183,0.294,0.42,0.524,0.593c0.248,0.151,0.376,0.398,0.698,0.511c0.303,0.126,0.525,0.331,0.875,0.426l1.019,0.33
			c0.765,0.103,1.49,0.315,2.327,0.313c0.827,0.012,1.632,0.103,2.5,0.007c1.697-0.051,3.438-0.355,5.175-0.608l2.621-0.379
			l0.17,2.572c0.102,1.531,0.324,3.216,0.661,4.75c0.336,1.541,0.804,3.06,1.448,4.187c0.175,0.226,0.328,0.521,0.492,0.708
			c0.173,0.097,0.318,0.359,0.452,0.393c0.134-0.021,0.204,0.207,0.344,0.114c0.116-0.032,0.206,0.105,0.441-0.043
			c0.213-0.124,0.384-0.008,0.665-0.25l0.797-0.492c0.27-0.157,0.541-0.479,0.813-0.705l0.826-0.745l5.983-5.388l-2.163,7.594
			c-0.225,0.79-0.408,1.823-0.512,2.744c-0.101,0.947-0.167,1.906-0.098,2.818c0.034,0.915,0.157,1.824,0.421,2.622
			c0.101,0.42,0.237,0.815,0.44,1.159c0.162,0.371,0.339,0.738,0.603,1.017c0.233,0.306,0.436,0.646,0.764,0.857
			c0.319,0.218,0.525,0.569,0.924,0.705l1.071,0.557l1.245,0.341c0.818,0.269,1.809,0.209,2.706,0.347l2.894-0.144l2.405-0.123
			l0.011,2.324c0.002,0.288,0.026,0.785,0.078,1.196c0.049,0.433,0.123,0.863,0.21,1.294c0.174,0.865,0.44,1.704,0.762,2.516
			c0.335,0.805,0.749,1.561,1.206,2.289c0.497,0.697,1.028,1.369,1.652,1.954c0.272,0.334,0.657,0.552,0.979,0.835
			c0.327,0.278,0.668,0.54,1.057,0.739c0.724,0.483,1.522,0.854,2.354,1.174c0.795,0.39,1.723,0.52,2.573,0.803
			c0.897,0.177,1.823,0.285,2.733,0.441l6.893,1.172l-6.288,2.767c-0.923,0.407-1.985,0.998-2.686,1.586
			c-0.35,0.278-0.641,0.624-0.666,0.717c-0.075,0.095,0.038-0.026-0.023-0.064c0.072-0.09-0.102-0.185,0.006-0.128
			c0.006,0.016,0.022,0.101,0.223,0.211c0.169,0.099,0.215,0.231,0.48,0.33c0.452,0.208,0.845,0.458,1.408,0.621
			c1.01,0.401,2.191,0.652,3.319,0.948l4.27,1.123l-3.581,2.478c-1.521,1.057-3.097,2.332-4.375,3.677
			c-0.638,0.683-1.209,1.385-1.678,2.101c-0.225,0.355-0.357,0.708-0.557,1.057l-0.25,0.949c0.098,0.24-0.072,0.528,0.102,0.734
			c0.147,0.199,0.096,0.464,0.413,0.67c0.271,0.203,0.345,0.501,0.771,0.673l1.048,0.621c0.404,0.17,0.853,0.304,1.276,0.462
			c0.443,0.138,0.833,0.35,1.319,0.434l2.833,0.612l-0.383,3.741c-2.205-0.09-4.495-0.092-6.677,0.056
			c-1.089,0.074-2.179,0.197-3.137,0.41c-0.485,0.099-0.913,0.257-1.156,0.377c-0.127,0.064-0.109,0.097-0.031-0.032
			c0.179-0.166,0.167-0.639,0.132-0.729c-0.14-0.22,0.173,0.21,0.469,0.441c0.367,0.284,0.756,0.57,1.217,0.841
			c0.881,0.546,1.876,1.042,2.871,1.522c2.017,0.951,4.123,1.794,6.24,2.62l-1.044,3.367c-1.479-0.354-3.064-0.646-4.579-0.826
			c-0.763-0.084-1.521-0.139-2.236-0.141c-0.706-0.002-1.421,0.074-1.822,0.213c-0.169,0.065-0.214,0.144-0.107-0.009
			c0.117-0.166,0.061-0.283,0.084-0.142c0.051,0.289,0.465,0.928,0.888,1.453c0.901,1.109,2.062,2.186,3.242,3.216l-2.093,2.635
			c-1.567-1.159-3.176-2.309-4.78-3.388c-0.788-0.525-1.64-1.084-2.335-1.439l-0.186-0.085c-0.041-0.016,0.053,0.024,0.075,0.018
			c-0.037-0.013,0.131,0.031,0.32,0.016c0.249-0.067,0.126,0.077,0.812-0.317c0.261-0.191,0.453-0.496,0.526-0.752
			c0.06-0.206,0.065-0.238,0.079-0.375c0.039-0.189-0.077-0.549-0.077-0.549c-0.007-0.046-0.034-0.098-0.056-0.126l0.108,0.152
			c0.214,0.288,0.551,0.651,0.857,0.987l0.073,0.079l0.03,0.039c5.509,7.32,10.393,14.955,14.904,22.859
			c2.273,3.938,4.354,7.989,6.342,12.081c0.994,2.046,1.883,4.148,2.829,6.215c0.841,2.118,1.726,4.221,2.513,6.359
			c1.509,4.265,2.957,8.734,3.848,13.158c0.91,4.532,1.918,8.77,2.875,13.174c0.48,2.188,1.345,4.267,1.997,6.406
			c0.76,2.101,1.277,4.299,2.233,6.33c1.837,4.083,3.429,8.29,5.724,12.154c1.105,1.952,2.07,3.986,3.289,5.871l3.67,5.644
			c1.161,1.927,2.653,3.618,3.974,5.432c1.357,1.789,2.695,3.601,4.224,5.238c1.503,1.658,2.912,3.401,4.498,5.004l4.815,4.736
			l5.255,4.188c1.755,1.397,3.717,2.534,5.563,3.813c3.694,2.581,7.685,4.713,11.521,7.079c3.944,2.196,7.85,4.454,11.83,6.593
			l11.883,6.5C792.744,453.384,796.695,455.583,800.336,458.259"/>
		<path clip-path="url(#SVGID_2_)" fill="#FFFFFF" d="M507.972,242.42c-0.295,0.849-1.083,1.454-2.024,1.428
			c-1.167-0.032-2.084-1.006-2.053-2.167c0.026-0.951,0.677-1.703,1.545-1.947c-2.557-2.868-5.2-6.342-7.254-10.29
			c0,0-6.162,4.363-7.276,12.183c0,0,10.972,7.244,23.38,6.372C514.291,247.999,511.471,245.931,507.972,242.42"/>
		<path clip-path="url(#SVGID_2_)" fill="#FFFFFF" d="M507.972,242.42c-0.295,0.849-1.083,1.454-2.024,1.428
			c-1.167-0.032-2.084-1.006-2.053-2.167c0.026-0.951,0.677-1.703,1.545-1.947c-2.557-2.868-5.2-6.342-7.254-10.29
			c0,0-6.162,4.363-7.276,12.183c0,0,10.972,7.244,23.38,6.372C514.291,247.999,511.471,245.931,507.972,242.42z"/>
		<path clip-path="url(#SVGID_2_)" fill="#FFFFFF" d="M504.693,226.181c0,0,1.13,0.47,2.516,1.455
			c0.696,0.487,1.5,1.063,2.199,1.854c0.742,0.746,1.442,1.625,2.151,2.497c1.357,1.802,2.515,3.76,3.206,5.332
			c0.711,1.563,0.94,2.753,0.94,2.753s-1.115-0.573-2.415-1.661c-1.327-1.068-2.854-2.637-4.178-4.37
			c-0.634-0.89-1.275-1.773-1.794-2.679c-0.505-0.912-1.064-1.73-1.455-2.493C505.035,227.37,504.693,226.181,504.693,226.181"/>
		<path clip-path="url(#SVGID_2_)" fill="#FFFFFF" d="M386.948,250.394c0,0-0.555,0.224-1.462,0.75
			c-0.88,0.543-2.19,1.264-3.427,2.452c-0.606,0.584-1.26,1.228-1.73,2.011c-0.421,0.639-1.141,1.856-2.229,2.83
			c-0.999,0.928-2.141,1.708-3.429,2.296c-1.293,0.586-2.702,1.046-4.374,1.128c-0.824,0.07-1.757-0.042-2.749-0.327
			c-0.985-0.315-2.079-0.955-2.821-1.926l-0.271-0.362l-0.131-0.186l-0.067-0.091l-0.03-0.049l-0.171-0.381l-0.202-0.399
			c-0.118-0.13-0.314-0.849-0.417-1.428c-0.134-0.69-0.127-0.947-0.146-1.362c-0.024-0.407-0.015-0.743,0-1.071
			c0.099-1.337,0.354-2.431,0.584-3.326c0.21-0.86,0.434-1.696,0.546-1.911c0.05-0.059,0.207-0.051,0.4-0.04
			c0.113-0.02,0.257-0.168,0.052-0.295c-0.26-0.311-0.92-0.4-1.386-0.568c-1.039-0.148-1.757-0.308-1.757-0.308l-0.224-0.594
			c0,0,0.436-0.544,1.425-1.323c0.583-0.307,1.177-0.804,2.401-0.917c0.519-0.133,1.457,0.072,2.217,0.498
			c0.875,0.521,1.441,1.313,1.781,2.115c0.635,1.548,0.669,2.727,0.724,3.927c0.042,1.186-0.056,2.266-0.119,3.198
			c-0.025,0.236-0.063,0.474-0.067,0.647c-0.004,0.156-0.044,0.487-0.065,0.372c-0.026,0.003-0.197-0.119-0.072,0.298l0.084,0.441
			l0.004,0.012c0.134,0.321-0.183-0.417-0.151-0.341l-0.002,0l-0.01,0l-0.028,0.008c-0.275,0.036-0.024,0.456,0.777,0.578
			c1.58,0.257,3.808-0.373,5.388-1.276c0.754-0.383,1.313-0.991,2.293-1.892c0.866-0.817,1.818-1.371,2.668-1.848
			c1.727-0.948,3.259-1.385,4.329-1.646c1.067-0.252,1.697-0.308,1.697-0.308L386.948,250.394z"/>
		<path clip-path="url(#SVGID_2_)" fill="none" stroke="#FFFFFF" stroke-miterlimit="10" d="M390.517,380.217
			c0,0,8.662-7.668,15.416-8.374c14.164-1.478,18.245-14.425,33.098-11.888c8.207,1.403,31.801,6.461,41.076-1.545
			c9.277-8.01,12.559-1.26,35.872-25.672c0,0-6.641-10.572-30.928-9.101c-15.358,0.928-18.01-3.954-43.472,1.48"/>
		<path clip-path="url(#SVGID_2_)" fill="#FFFFFF" d="M581.69,229.011l1.563,0.985c0.508,0.344,0.972,0.774,1.464,1.17
			c0.39,0.495,0.9,0.913,1.125,1.565c0.334,0.573,0.357,1.372,0.114,2.034c-0.247,0.68-0.735,1.188-1.234,1.633
			c-0.523,0.406-1.089,0.739-1.666,1.031c-1.164,0.567-2.354,0.957-3.619,1.267l-0.233-1.383c0.912-0.154,1.843-0.277,2.832-0.243
			c0.51,0.099,1.013,0.079,1.537,0.329c0.517,0.171,1.054,0.524,1.44,0.996c0.403,0.473,0.648,1.072,0.73,1.625
			c0.119,0.568,0.088,1.104,0.031,1.615c-0.135,1.04-0.409,1.933-0.841,2.885l-1.898-1.168c0.505-0.742,1.064-1.465,1.76-2.13
			c0.741-0.632,1.611-1.245,2.745-1.491c1.134-0.239,2.366,0.01,3.308,0.524c0.467,0.266,0.907,0.559,1.287,0.899
			c0.399,0.353,0.706,0.664,1.08,1.164l0.301,0.404l-0.072,0.667c-0.297,2.788-1.662,5.771-3.953,7.695
			c-2.212,1.967-4.786,3.055-6.892,4.231c-2.124,1.186-3.854,2.465-4.644,4.277c-0.427,0.902-0.664,1.887-0.844,2.986
			c-0.172,1.274-0.344,2.551-0.462,3.789c-0.526,4.997-0.928,10.113-1.178,15.19c-0.292,5.086-0.483,10.171-0.569,15.26
			c-0.074,5.085,0.004,10.159,0.182,15.225l0.406,7.577c0.244,2.506,0.409,5.027,0.701,7.525c0.373,2.477,0.595,4.993,1.084,7.434
			c0.511,2.43,0.852,4.924,1.578,7.264l0.964,3.564l1.235,3.408c0.704,2.359,2.013,4.277,3.02,6.416l-5.662,0.686
			c0.149-0.426,0.26-0.685,0.402-1.014c0.14-0.316,0.289-0.626,0.457-0.94c0.342-0.627,0.741-1.275,1.355-1.955
			c0.313-0.348,0.707-0.704,1.215-1.041c0.542-0.34,1.204-0.647,2.039-0.758c0.783-0.102,1.688,0.022,2.305,0.294
			c0.749,0.267,1.083,0.588,1.583,0.937l-2.153-0.732c0.538-0.01,0.798,0.016,1.173,0.047c0.345,0.036,0.687,0.083,1.025,0.156
			c0.68,0.128,1.368,0.351,2.047,0.631c1.355,0.581,2.743,1.643,3.601,3.056c0.402,0.696,0.767,1.438,0.934,2.158
			c0.243,0.748,0.274,1.422,0.348,2.124c0.063,1.359-0.114,2.578-0.343,3.746l-5.281-2.721c0.929-0.991,1.815-1.863,2.775-2.755
			c0.948-0.881,1.977-1.72,3.086-2.542c0.573-0.405,1.153-0.806,1.844-1.184c0.301-0.194,0.712-0.379,1.12-0.547
			c0.357-0.176,0.846-0.346,1.443-0.457c0.31-0.049,0.484-0.135,0.905-0.129c0.41,0.006,0.826,0.041,1.23,0.11
			c0.744,0.081,1.897,0.833,2.396,1.456c0.405,0.574,0.911,1.496,0.946,1.941c0.102,0.505,0.178,1.022,0.236,1.53l-5.167-1.747
			c0.706-0.794,1.341-1.422,2.103-2.099c0.771-0.653,1.531-1.3,2.69-1.895c0.257-0.149,0.66-0.287,0.989-0.416
			c0.297-0.132,0.893-0.219,1.334-0.274c0.47-0.064,1.237,0.066,1.805,0.232c0.586,0.262,1.289,0.7,1.634,1.119
			c0.323,0.399,0.683,0.921,0.84,1.31c0.135,0.357,0.253,0.722,0.354,1.086c0.121,0.394,0.1,0.616,0.15,0.932l0.092,0.881
			l-3.987-2.406c1.212-0.605,2.646-1.398,3.877-2.277c1.297-0.837,2.476-1.833,3.644-2.821l1.665-1.568
			c0.53-0.541,0.983-1.139,1.483-1.708c1.076-1.083,1.679-2.486,2.529-3.663c1.547-2.917,2.807-5.832,4.385-8.939
			c0.801-1.528,1.654-3.088,2.785-4.577c1.114-1.478,2.59-2.918,4.438-3.843c1.8-0.961,4.03-1.181,5.706-1.156l5.022,0.073
			c3.312,0.056,6.613,0.161,9.839,0.018c1.594-0.08,3.234-0.205,4.606-0.613c1.564-0.666,1.349-0.244,0.815-2.507
			c-0.374-1.665-0.703-3.336-0.694-5.153c0.019-0.459,0.054-0.93,0.201-1.438c0.13-0.502,0.471-1.114,1.164-1.451
			c1.483-0.342,2.131,0.461,2.921,0.861l-0.92,0.746c-0.7-2.011-1.266-4.042-1.6-6.145c-0.066-0.53-0.142-1.053-0.157-1.594
			c-0.031-0.528-0.022-1.077,0.104-1.611c0.045-0.267,0.13-0.531,0.306-0.769c0.098-0.275,0.425-0.368,0.644-0.526
			c0.571-0.086,1.065,0.103,1.554,0.298c-0.508-0.147-1.014-0.268-1.501-0.139c-0.173,0.17-0.425,0.237-0.484,0.498
			c-0.125,0.208-0.181,0.443-0.195,0.698c-0.058,0.487-0.021,1.007,0.065,1.507c0.064,0.508,0.195,1.007,0.312,1.506
			c0.546,1.981,1.295,3.933,2.102,5.815l0.713,1.666l-1.632-0.923c-0.616-0.343-1.479-0.73-1.696-0.558
			c-0.139,0.057-0.354,0.802-0.27,1.547c0.105,1.506,0.531,3.1,1.013,4.633c0.156,0.837,0.71,1.24,0.58,2.955
			c-0.515,1.645-1.708,1.896-2.532,2.354c-1.777,0.678-3.468,0.9-5.17,1.134c-3.39,0.438-6.742,0.556-10.064,0.666l-4.936,0.209
			c-1.625,0.087-2.784,0.303-3.92,0.964c-2.207,1.25-3.697,3.991-5.045,6.855c-1.318,2.866-2.577,6.106-4.018,9.114
			c-0.98,1.587-1.713,3.294-2.915,4.66c-0.565,0.705-1.098,1.447-1.701,2.12l-1.881,1.92c-1.304,1.218-2.667,2.38-4.13,3.393
			c-1.453,1.07-2.904,1.947-4.64,2.86l-3.346,1.752l-0.642-4.161l-0.062-0.393c-0.022-0.102-0.017-0.318-0.054-0.333
			c-0.026-0.039-0.038-0.084-0.04-0.132c-0.003-0.006,0.061,0.193,0.157,0.229c0.084,0.088,0.354,0.367,0.598,0.376
			c0.146,0.133,0.492,0.1,0.541,0.109c0.026,0.044,0.177-0.056,0.084,0.005c-0.061,0.045-0.079,0.017-0.19,0.09
			c-0.37,0.188-0.938,0.646-1.451,1.118c-0.513,0.473-1.076,1.068-1.498,1.565l-2.827,3.351l-2.34-5.102
			c-0.042-0.089-0.061-0.176-0.058-0.276c-0.011-0.172,0.027,0.275,0.195,0.298c0.08,0.251,0.71,0.529,0.866,0.558
			c0.231,0.092,0.468-0.014,0.332,0.056c-0.006-0.004-0.096,0.011-0.287,0.119c-0.149,0.073-0.3,0.127-0.507,0.273
			c-0.378,0.216-0.795,0.516-1.213,0.823c-0.835,0.653-1.676,1.384-2.506,2.169c-0.82,0.772-1.667,1.622-2.396,2.413l-7.146,7.756
			l1.861-10.476c0.137-0.764,0.228-1.495,0.192-2.103c-0.053-0.27-0.041-0.589-0.136-0.775c-0.037-0.239-0.152-0.371-0.217-0.533
			c-0.167-0.273-0.408-0.47-0.85-0.665c-0.229-0.083-0.476-0.177-0.763-0.222c-0.139-0.031-0.282-0.047-0.429-0.063
			c-0.111-0.013-0.343-0.016-0.296-0.019l-2.153-0.733c0.044,0.077-0.006-0.006,0.211,0.128c0.136,0.041,0.483,0.128,0.748,0.073
			c0.301-0.042,0.469-0.128,0.555-0.189c0.066-0.035,0.06-0.042,0.012,0.01c-0.096,0.113-0.275,0.37-0.44,0.682l-0.238,0.502
			l-0.185,0.47l-2.627,6.687l-3.031-5.998c-1.25-2.465-2.802-4.88-3.612-7.452c-0.469-1.272-0.978-2.54-1.408-3.823l-1.022-3.876
			c-0.763-2.579-1.11-5.188-1.624-7.786c-0.495-2.597-0.711-5.205-1.071-7.805c-0.285-2.604-0.443-5.208-0.668-7.811L569,312.224
			c-0.055-5.198-0.008-10.386,0.193-15.56c0.232-5.177,0.497-10.347,1-15.495c0.466-5.164,1.073-10.266,1.829-15.448
			c0.183-1.312,0.404-2.572,0.626-3.835c0.283-1.422,0.698-2.933,1.455-4.322c1.502-2.884,4.328-4.593,6.698-5.734
			c2.44-1.164,4.705-2.023,6.425-3.403c1.753-1.313,2.764-3.245,3.254-5.523l0.23,1.071c-0.105-0.176-0.346-0.489-0.557-0.692
			c-0.217-0.233-0.456-0.416-0.696-0.586c-0.487-0.313-0.958-0.435-1.465-0.392c-0.511,0.063-1.069,0.368-1.617,0.755
			c-0.54,0.44-1.038,0.985-1.519,1.576l-1.896-1.17c0.724-1.276,1.234-3.107,0.62-3.951c-0.15-0.215-0.363-0.41-0.672-0.537
			c-0.26-0.188-0.685-0.193-1.028-0.306c-0.784-0.085-1.609-0.051-2.456,0.025l-0.236-1.384c1.141-0.187,2.33-0.476,3.416-0.904
			c0.549-0.223,1.053-0.487,1.542-0.788c0.449-0.326,0.877-0.69,1.1-1.159c0.211-0.45,0.292-1.011,0.057-1.531
			c-0.119-0.555-0.554-1.001-0.868-1.503c-0.429-0.417-0.822-0.879-1.295-1.274L581.69,229.011z"/>
		<path clip-path="url(#SVGID_2_)" fill="#FFFFFF" d="M361.424,401.54c0,0,1.796-21.935,12.312-26.443
			c10.515-4.511,15.535-12.768,32.429-16.703c16.895-3.937,25.704-4.497,33.941-13.465c8.239-8.967,20.198-7.843,33.359-21.475"/>
		<path clip-path="url(#SVGID_2_)" fill="none" stroke="#FFFFFF" stroke-width="0.5" stroke-miterlimit="10" d="M414.407,356.619
			c0,0,4.825,6.261,8.529,7.162"/>
		<path clip-path="url(#SVGID_2_)" fill="#FFFFFF" d="M438.406,359.759c0.07-0.626,0.183-1.313,0.302-1.933
			c0.126-0.64,0.275-1.274,0.478-1.918c0.08-0.318,0.208-0.644,0.335-0.969c0.14-0.326,0.226-0.641,0.433-0.977
			c0.193-0.333,0.346-0.655,0.582-0.988c0.285-0.335,0.592-0.661,0.904-0.971l1.133-1.113l1.017,1.399
			c0.921,1.268,1.923,2.54,2.938,3.731c0.504,0.613,1.032,1.164,1.561,1.71c0.267,0.267,0.53,0.46,0.792,0.702
			c0.298,0.296,0.361,0.184,0.527,0.384l-1.322,0.384c1.375-1.426,2.699-3.042,3.787-4.7c1.063-1.621,2.033-3.549,1.892-4.997
			l-0.159-1.709l1.577,0.33c1.917,0.402,3.697,0.936,5.478,1.701c0.448,0.178,0.872,0.427,1.313,0.638
			c0.441,0.2,0.858,0.457,1.269,0.751c0.404,0.301,0.851,0.502,1.219,0.892l1.113,1.092l-1.598-0.071
			c1.65-1.646,3.224-3.478,4.557-5.392c0.669-0.957,1.26-1.961,1.72-2.981c0.242-0.511,0.394-1.032,0.539-1.546
			c0.107-0.514,0.14-1,0.095-1.461l-0.121-1.308l1.193,0.277c0.784,0.183,1.511,0.435,2.248,0.677
			c0.744,0.208,1.445,0.562,2.163,0.868c0.715,0.3,1.429,0.598,2.082,1.066l1.995,1.27l-1.263,0.627
			c0.024-1.685,0.063-3.339,0.208-5.02c0.083-0.843,0.14-1.676,0.244-2.521l0.591-2.583l0.096-0.406l0.487-0.008
			c1.112-0.006,2.185,0.044,3.29,0.212c0.543,0.071,1.094,0.197,1.642,0.361c0.551,0.153,1.106,0.43,1.634,0.814l-0.949,0.4
			c0.16-1.731,0.338-3.444,0.628-5.16c0.154-0.856,0.262-1.714,0.451-2.569l0.77-2.564l0.145-0.499l0.482,0.3
			c2.656,1.649,5.253,3.37,7.78,5.204c1.258,0.924,2.51,1.861,3.693,2.891c0.592,0.519,1.18,1.033,1.711,1.625
			c0.548,0.56,1.047,1.199,1.364,1.989l-0.385,0.146c-0.55-1.31-1.059-2.632-1.51-3.978c-0.218-0.673-0.428-1.354-0.583-2.049
			c-0.127-0.693-0.355-1.407-0.082-2.164l0.02-0.049l0.069,0.001c1.31,0.048,2.612,0.195,3.894,0.466
			c0.637,0.145,1.269,0.325,1.871,0.588c0.588,0.266,1.185,0.637,1.468,1.24c-0.296-0.594-0.903-0.946-1.488-1.191
			c-0.606-0.248-1.236-0.408-1.875-0.537c-1.273-0.236-2.579-0.353-3.874-0.368l0.088-0.049c-0.204,0.6,0.001,1.339,0.152,2.003
			c0.172,0.679,0.396,1.348,0.635,2.01c0.473,1.322,1.017,2.626,1.595,3.908l-0.391,0.143c-0.282-0.646-0.758-1.254-1.313-1.785
			c-0.522-0.551-1.118-1.048-1.707-1.543c-1.19-0.982-2.454-1.882-3.724-2.769c-2.554-1.754-5.191-3.403-7.859-4.968l0.627-0.196
			l-0.637,2.393c-0.163,0.824-0.248,1.681-0.377,2.519c-0.239,1.675-0.371,3.392-0.488,5.087l-0.064,0.958l-0.886-0.559
			c-0.354-0.223-0.734-0.426-1.225-0.551c-0.465-0.125-0.962-0.225-1.466-0.281c-1.003-0.125-2.063-0.152-3.069-0.119l0.582-0.404
			l-0.447,2.273c-0.078,0.797-0.112,1.62-0.166,2.428c-0.104,1.622-0.102,3.282-0.08,4.906l0.014,1.392l-1.277-0.764l-1.838-1.096
			c-0.589-0.405-1.269-0.664-1.948-0.933c-0.674-0.264-1.328-0.58-2.037-0.758c-0.694-0.208-1.397-0.427-2.08-0.572l1.071-1.029
			c0.105,0.75,0.067,1.466-0.059,2.149c-0.165,0.657-0.347,1.301-0.606,1.896c-0.508,1.198-1.125,2.307-1.815,3.353
			c-1.388,2.094-2.938,3.993-4.667,5.817l-0.708,0.743l-0.889-0.814l-0.872-0.798c-0.254-0.289-0.674-0.456-1.005-0.696
			c-0.337-0.233-0.7-0.444-1.101-0.613c-0.389-0.173-0.754-0.377-1.166-0.529c-1.588-0.641-3.335-1.114-4.999-1.416l1.411-1.377
			c0.082,0.695,0.054,1.36-0.063,1.98c-0.128,0.603-0.289,1.193-0.509,1.733c-0.423,1.084-0.947,2.086-1.534,3.024
			c-1.179,1.889-2.496,3.577-3.997,5.224l-0.621,0.68l-0.698-0.293c-0.524-0.225-1.29-0.557-1.566-0.842
			c-0.352-0.294-0.743-0.59-1.056-0.894c-0.622-0.604-1.232-1.213-1.777-1.841c-1.127-1.252-2.167-2.519-3.193-3.85l2.147,0.282
			c-0.091,0.144-0.188,0.267-0.311,0.382c-0.11,0.163-0.208,0.4-0.318,0.589c-0.201,0.42-0.385,0.929-0.524,1.448
			c-0.145,0.523-0.257,1.066-0.359,1.62c-0.094,0.575-0.167,1.089-0.214,1.667L438.406,359.759z"/>

			<line clip-path="url(#SVGID_2_)" fill="none" stroke="#FFFFFF" stroke-width="0.5" stroke-miterlimit="10" x1="411.228" y1="282.589" x2="412.792" y2="283.832"/>

			<line clip-path="url(#SVGID_2_)" fill="none" stroke="#FFFFFF" stroke-width="0.5" stroke-miterlimit="10" x1="402.914" y1="282.163" x2="404.104" y2="282.528"/>

			<line clip-path="url(#SVGID_2_)" fill="none" stroke="#FFFFFF" stroke-width="0.5" stroke-miterlimit="10" x1="410.216" y1="295.285" x2="412.046" y2="296.534"/>

			<line clip-path="url(#SVGID_2_)" fill="none" stroke="#FFFFFF" stroke-width="0.5" stroke-miterlimit="10" x1="422.631" y1="296.823" x2="424.212" y2="297.463"/>

			<line clip-path="url(#SVGID_2_)" fill="none" stroke="#FFFFFF" stroke-width="0.5" stroke-miterlimit="10" x1="434.618" y1="296.949" x2="435.936" y2="297.518"/>

			<line clip-path="url(#SVGID_2_)" fill="none" stroke="#FFFFFF" stroke-width="0.5" stroke-miterlimit="10" x1="424.638" y1="284.354" x2="425.537" y2="285.511"/>
	</g>
</g>
<g id="Layer_5">
	<g>
		<line x1="1460.261" y1="147.234" x2="1462.261" y2="794.234"/>
		<path fill="#FFFFFF" d="M1460.261,147.234c0.772,6.737,1.399,13.475,2.104,20.212l1.867,20.213
			c1.229,13.475,2.32,26.951,3.349,40.427c0.241,3.369,0.098,6.739,0.014,10.109c-0.074,3.37-0.021,6.74-0.021,10.11l0.063,20.219
			l0.125,40.438l0.5,161.75l0.5,161.75l0.25,80.875c-2.045,26.965-4.024,53.93-6.75,80.896c-2.892-26.949-5.038-53.901-7.25-80.854
			l-0.25-80.875l-0.5-161.75l-0.5-161.75l-0.125-40.438l-0.063-20.219c-0.021-3.37,0.012-6.74-0.084-10.109
			c-0.104-3.37-0.27-6.739-0.049-10.109c0.944-13.482,1.953-26.965,3.099-40.448l1.742-20.224
			C1458.946,160.718,1459.531,153.976,1460.261,147.234z"/>
	</g>
</g>
<g id="Layer_3">
</g>
<g id="Layer_1">
	<g>
		<path fill="#FFFFFF" d="M1393.087,434.934c0,2.286-0.955,3.428-2.856,3.428c-7.624,0-19.426-0.375-35.424-1.143
			c-16.766-0.759-28.765-1.143-35.995-1.143c-9.526,0-21.141,0.384-34.854,1.143c-12.953,0.768-23.237,1.143-30.853,1.143
			c-1.527,0-2.286-1.143-2.286-3.428c0-2.285,0.759-3.428,2.286-3.428c9.9,0,17.042-1.044,21.426-3.142
			c4.374-2.089,6.57-5.803,6.57-11.142c0-6.473-3.812-17.328-11.427-32.567l-38.853-77.133h-140.554l-22.283,49.708
			c-4.954,11.052-7.427,21.336-7.427,30.853c0,13.712,4.856,24.381,14.569,31.996c9.713,7.624,22.756,11.427,39.138,11.427
			c1.901,0,2.856,1.143,2.856,3.428c0,2.286-0.955,3.428-2.856,3.428c-6.856,0-16.766-0.375-29.711-1.143
			c-14.479-0.759-27.05-1.143-37.709-1.143c-10.284,0-22.667,0.384-37.139,1.143c-12.953,0.768-23.425,1.143-31.424,1.143
			c-1.518,0-2.286-1.143-2.286-3.428c0-2.285,0.769-3.428,2.286-3.428c10.659,0,19.613-2.187,26.854-6.57
			c7.231-4.375,14.472-12.186,21.712-23.426c7.23-11.23,15.801-27.898,25.711-49.994l123.983-272.537
			c0.76-1.143,2.474-1.714,5.143-1.714c3.044,0,4.759,0.572,5.143,1.714l142.839,281.107c13.328,27.05,24.372,45.708,33.139,55.993
			c8.758,10.284,17.899,15.426,27.425,15.426C1392.132,431.505,1393.087,432.648,1393.087,434.934z M1097.697,291.523h124.556
			l-65.706-130.269L1097.697,291.523z"/>
	</g>
	<g>
		<path fill="#FFFFFF" d="M1392.822,767.277c0,2.059-0.346,3.088-1.029,3.088c-11.668,0-20.932-0.169-27.791-0.515l-38.083-0.515
			l-38.598,0.515c-6.521,0.346-15.438,0.515-26.761,0.515c-1.029,0-1.544-1.029-1.544-3.088s0.515-3.088,1.544-3.088
			c14.409,0,24.188-1.713,29.334-5.146c5.146-3.425,7.72-10.63,7.72-21.614l-0.515-8.749l-10.808-210.486l-106.015,248.569
			c-0.691,1.375-2.059,2.059-4.117,2.059s-3.434-0.684-4.117-2.059l-130.203-247.54l-4.117,185.784
			c-0.346,18.526,3.346,33.024,11.064,43.486c7.72,10.47,18.607,15.696,32.68,15.696c1.029,0,1.544,1.029,1.544,3.088
			s-0.515,3.088-1.544,3.088c-9.264,0-16.468-0.169-21.614-0.515l-28.306-0.515l-32.422,0.515
			c-5.492,0.346-12.866,0.515-22.129,0.515c-1.029,0-1.544-1.029-1.544-3.088s0.515-3.088,1.544-3.088
			c14.063,0,25.217-5.315,33.451-15.953c8.234-10.631,12.52-25.041,12.866-43.229l4.631-213.06l-0.515-0.515
			c-6.867-12.689-13.983-21.953-21.357-27.791c-7.382-5.83-15.873-8.749-25.474-8.749c-1.029,0-1.544-1.029-1.544-3.088
			c0-2.058,0.515-3.087,1.544-3.087l24.188,0.515c4.801,0.346,10.977,0.515,18.527,0.515l27.275-0.515
			c3.088-0.338,7.028-0.515,11.837-0.515c4.454,0,7.888,1.544,10.292,4.631c2.396,3.088,6.859,10.47,13.381,22.129l112.19,210.486
			l97.781-224.381c2.059-4.801,4.197-8.146,6.433-10.036c2.228-1.881,5.228-2.83,9.007-2.83c3.088,0,6.602,0.177,10.55,0.515
			c3.94,0.346,8.491,0.515,13.638,0.515l30.363-0.515c4.801-0.338,11.66-0.515,20.586-0.515c1.029,0,1.544,1.029,1.544,3.087
			c0,2.059-0.515,3.088-1.544,3.088c-16.131,0-27.791,3.265-34.995,9.778c-7.205,6.521-10.47,16.645-9.778,30.363l12.352,233.645
			c0.683,10.639,1.97,18.358,3.859,23.158c1.882,4.809,5.315,8.065,10.293,9.778c4.969,1.721,12.777,2.573,23.416,2.573
			C1392.476,764.189,1392.822,765.219,1392.822,767.277z"/>
	</g>
	<g>
		<path fill="#FFFFFF" d="M1528.594,233.567c-2.065-0.683-4.188-1.146-6.295-1.401c-2.104-0.24-4.229-0.229-6.138,0.239
			c-1.915,0.441-3.527,1.394-4.512,2.767c-1.005,1.364-1.479,3.12-1.626,4.988c-0.073,0.927-0.066,1.916-0.003,2.855
			c0.025,0.554,0.058,1.083,0.098,1.566c0.042,0.506,0.09,1.018,0.147,1.52c0.228,2.012,0.608,3.96,1.2,5.696
			c0.595,1.732,1.418,3.217,2.432,4.228c1.006,1.031,2.194,1.63,3.678,2.087c1.475,0.443,3.212,0.902,5.144,1.196
			c0.967,0.13,1.97,0.251,3.005,0.316c1.006,0.069,2.174,0.15,3.025,0.165c3.842,0.083,7.747-0.431,11.243-1.617
			c3.497-1.19,6.551-3.092,8.692-5.693c2.162-2.584,3.437-5.894,3.901-9.556c0.242-1.827,0.284-3.733,0.187-5.667
			c-0.025-0.414-0.063-1.094-0.104-1.525l-0.137-1.469c-0.11-0.994-0.238-1.984-0.403-2.964c-0.646-3.923-1.762-7.724-3.401-11.211
			c-1.641-3.482-3.821-6.64-6.514-9.19c-2.684-2.557-5.872-4.492-9.364-5.645c-3.489-1.165-7.265-1.555-11.071-1.27l-1.51,0.137
			l-1.585,0.162l-3.14,0.361c-2.078,0.261-4.123,0.569-6.124,0.958c-4,0.774-7.832,1.876-11.274,3.529
			c-3.442,1.646-6.463,3.856-8.894,6.643c-4.909,5.563-7.321,13.354-8.273,21.403c-0.483,4.041-0.626,8.19-0.533,12.325
			c0.099,4.119,0.497,8.199,1.271,12.159c1.531,7.905,4.705,15.372,9.911,20.995c2.582,2.818,5.65,5.15,9.046,6.954
			c3.403,1.796,7.13,3.056,11.011,3.835c7.798,1.553,16.032,1.224,24.237-0.157c4.109-0.673,8.162-1.575,12.111-2.748
			c1.971-0.594,3.93-1.219,5.822-1.998c1.892-0.787,3.727-1.667,5.634-2.39c7.642-2.886,14.758-7.245,20.912-12.948
			c6.178-5.682,11.295-12.699,15.527-20.304c-1.284,4.164-2.921,8.239-4.874,12.208c-1.987,3.947-4.343,7.756-7.075,11.339
			c-5.459,7.176-12.604,13.225-20.59,17.815c-1.992,1.165-4.151,1.975-6.306,2.738c-2.152,0.77-4.303,1.529-6.485,2.166
			c-4.358,1.294-8.781,2.275-13.222,3.003c-8.85,1.482-18.223,1.94-27.464,0.099c-4.612-0.925-9.182-2.452-13.447-4.704
			c-4.257-2.255-8.187-5.239-11.459-8.814c-3.29-3.561-5.917-7.669-7.894-11.981c-1.978-4.319-3.344-8.836-4.229-13.379
			c-0.887-4.546-1.326-9.122-1.436-13.663c-0.101-4.525,0.05-9.059,0.595-13.624c0.55-4.559,1.494-9.159,3.134-13.651
			c1.631-4.479,4.017-8.866,7.304-12.609c3.267-3.757,7.398-6.747,11.771-8.828c4.381-2.099,8.957-3.377,13.454-4.25
			c2.252-0.437,4.494-0.772,6.715-1.052l3.316-0.381l1.646-0.168l1.727-0.156c4.826-0.364,9.841,0.123,14.58,1.706
			c4.742,1.56,9.137,4.235,12.722,7.658c3.604,3.417,6.407,7.529,8.456,11.878c2.049,4.358,3.377,8.956,4.14,13.579
			c0.194,1.156,0.345,2.315,0.473,3.474c0.061,0.576,0.118,1.159,0.164,1.766c0.055,0.648,0.075,1.05,0.115,1.717
			c0.121,2.392,0.075,4.834-0.249,7.305c-0.607,4.91-2.473,10.056-5.9,14.139c-3.391,4.116-8.031,6.88-12.714,8.463
			c-4.721,1.59-9.542,2.191-14.354,2.096c-1.315-0.031-2.309-0.109-3.463-0.186c-1.126-0.088-2.281-0.158-3.465-0.289
			c-2.36-0.239-4.921-0.593-7.469-1.782c-2.529-1.155-5.021-3.122-6.646-5.551c-1.657-2.419-2.473-5.055-2.899-7.519
			c-0.416-2.48-0.472-4.867-0.37-7.183c0.026-0.58,0.063-1.152,0.107-1.729c0.047-0.6,0.102-1.154,0.161-1.683
			c0.137-1.225,0.344-2.399,0.661-3.603c0.627-2.368,1.746-4.838,3.714-6.669c1.955-1.856,4.576-2.699,6.941-2.793
			c2.397-0.091,4.647,0.379,6.77,1.054C1524.707,231.54,1526.72,232.449,1528.594,233.567z"/>
	</g>
	<g>
		<path fill="#FFFFFF" d="M1989.261,356.234c3.078,4.26,5.529,9.023,7.075,14.151c0.762,2.565,1.271,5.238,1.373,7.977
			c0.103,2.732-0.219,5.54-1.112,8.218c-0.896,2.686-2.35,5.163-4.128,7.333c-1.776,2.177-3.861,4.057-6.084,5.705
			c-4.466,3.286-9.461,5.659-14.574,7.515c-5.126,1.851-10.411,3.15-15.743,4.059c-5.334,0.915-10.718,1.456-16.11,1.699
			c-2.709,0.118-5.367,0.176-8.123,0.136c-2.745-0.047-5.465-0.202-8.173-0.437c-5.413-0.478-10.764-1.247-16.046-2.246
			c-5.283-1.004-10.439-2.458-15.549-3.97c-5.11-1.511-10.19-3.072-15.229-4.729c-10.076-3.313-20.01-6.929-29.869-10.679
			c-19.714-7.514-39.145-15.548-58.571-23.491c-19.424-7.948-38.833-15.839-58.396-23.223c-19.562-7.376-39.279-14.273-59.27-20.037
			c-19.98-5.734-40.271-10.4-60.739-12.57c-20.444-2.134-41.093-1.72-60.527,4.131c-9.812,2.813-19.362,6.417-28.097,11.279
			c-8.72,4.85-16.59,11.03-22.551,18.7c-6.009,7.637-9.944,16.719-12.072,26.401c-2.175,9.7-2.636,19.895-2.896,30.34l-0.472,15.728
			l-0.323,15.711l-0.506,31.471l-0.844,62.968l-1.458,125.953c-1.979,41.969-3.895,83.939-6.319,125.907
			c-1.584-42.008-2.619-84.011-3.681-126.017l1.459-125.968l0.844-62.99l0.506-31.505l0.325-15.775l0.473-15.75
			c0.27-10.513,0.712-21.422,3.132-32.25c1.205-5.403,2.903-10.769,5.222-15.903c2.312-5.134,5.248-10.024,8.727-14.472
			c6.952-8.943,15.97-15.948,25.565-21.283c9.628-5.354,19.863-9.188,30.216-12.159c1.282-0.365,2.621-0.734,3.906-1.072
			c1.24-0.328,2.637-0.684,3.946-0.989c2.665-0.62,5.345-1.153,8.033-1.602c5.377-0.897,10.786-1.465,16.19-1.768
			c10.813-0.599,21.594-0.146,32.244,0.968c21.313,2.263,42.106,7.067,62.463,12.906c20.361,5.871,40.312,12.854,60.034,20.29
			c19.722,7.444,39.215,15.37,58.652,23.324c19.438,7.947,38.816,15.958,58.341,23.399c19.509,7.404,39.233,14.369,59.266,18.861
			c4.969,1.256,9.954,2.388,14.962,3.185c2.502,0.401,5.012,0.728,7.509,0.952c2.486,0.218,5.079,0.352,7.618,0.424
			c10.196,0.276,20.477-0.555,30.271-3.147c4.874-1.328,9.629-3.141,13.865-5.754c4.205-2.602,7.93-6.1,9.852-10.593
			c1.977-4.484,2.045-9.777,1.022-14.802c-0.508-2.526-1.274-5.018-2.227-7.444C1991.713,360.874,1990.602,358.493,1989.261,356.234
			z"/>
	</g>
	<g>
		<path fill="#FFFFFF" d="M1637.261,374.234c-1.934,2.181-3.688,4.503-5.228,6.919c-1.514,2.416-2.828,4.993-3.412,7.582
			c-0.291,1.281-0.379,2.557-0.145,3.654c0.271,1.178,0.733,2.519,1.271,3.727c1.086,2.455,2.557,4.735,4.314,6.59
			c1.762,1.851,3.808,3.254,5.957,3.969c2.155,0.716,4.408,0.754,6.667,0.232c1.129-0.255,2.258-0.646,3.372-1.143l0.208-0.094
			l0.104-0.046c0.111-0.045-0.036,0.011,0.025-0.018l0.493-0.235c0.188-0.085,0.278-0.144,0.381-0.205l0.318-0.185
			c0.484-0.292,0.96-0.601,1.418-0.945c1.841-1.36,3.416-3.156,4.76-5.146c1.328-1.999,2.645-4.084,3.663-6.382
			c1.012-2.296,1.703-4.763,2.136-7.276c0.869-5.032,0.676-10.272-0.562-15.236c-1.236-4.979-3.501-9.642-6.664-13.766
			c-3.204-4.173-7.188-8.1-11.394-11.703c-8.472-7.208-18.029-13.33-28.106-18.146c-10.08-4.789-20.795-8.288-31.647-9.514
			c-5.418-0.606-10.857-0.624-16.148,0.107c-2.645,0.365-5.251,0.912-7.789,1.661c-1.293,0.381-2.472,0.777-3.808,1.28
			c-1.391,0.508-2.598,0.981-3.929,1.514c-10.372,4.191-20.241,9.624-28.335,16.848c-4.032,3.607-7.58,7.668-10.382,12.139
			c-2.801,4.467-4.836,9.347-5.925,14.448c-1.111,5.09-1.269,10.419-0.624,15.652c0.637,5.12,2.313,10.114,4.832,14.663
			c5.008,9.094,13.525,16.34,23.319,18.958c4.88,1.326,10.021,1.492,15.019,0.519c5.004-0.96,9.849-3.035,14.316-5.867
			c4.48-2.83,8.448-6.284,10.843-10.3c2.418-3.997,3.078-8.483,1.942-13.042c-1.108-4.553-3.85-9.024-7.327-12.804
			c-1.747-1.88-3.67-3.651-5.739-5.049c-1.023-0.705-2.099-1.293-3.087-1.771l-0.364-0.174l-0.395-0.177l-0.859-0.382
			c-0.579-0.245-1.16-0.511-1.757-0.748c-4.742-1.985-10.104-3.205-15.121-3.04c-2.496,0.097-4.898,0.587-6.818,1.631
			c-1.908,1.045-3.333,2.642-4.096,4.873c-0.188,0.553-0.349,1.134-0.453,1.743c-0.058,0.298-0.1,0.624-0.14,0.915l-0.096,1.02
			c-0.103,1.306-0.091,2.643,0.05,3.948c0.279,2.615,1.133,5.164,2.6,7.424c1.444,2.274,3.491,4.232,5.855,5.788
			c2.369,1.553,5.028,2.75,7.818,3.589c-2.896-0.344-5.781-1.09-8.512-2.326c-2.726-1.229-5.315-2.979-7.405-5.331
			c-2.088-2.346-3.586-5.281-4.383-8.373c-0.4-1.55-0.646-3.119-0.755-4.718l-0.062-1.159c-0.009-0.435-0.014-0.834,0.003-1.259
			c0.02-0.838,0.115-1.692,0.27-2.549c0.306-1.713,0.938-3.455,1.913-5.03c0.974-1.577,2.292-2.948,3.753-4.031
			c2.952-2.169,6.319-3.244,9.571-3.819c3.273-0.562,6.521-0.627,9.72-0.398c3.201,0.237,6.358,0.775,9.493,1.633
			c0.779,0.229,1.563,0.46,2.332,0.757c0.374,0.142,0.858,0.324,1.152,0.457l0.601,0.264l0.619,0.295
			c1.616,0.813,3.014,1.766,4.362,2.737c2.67,1.965,5.094,4.1,7.286,6.488c4.342,4.757,7.997,10.438,9.687,17.211
			c0.826,3.368,1.075,7.003,0.539,10.566c-0.52,3.565-1.823,6.988-3.612,9.967c-1.789,2.991-4.019,5.568-6.423,7.798
			c-2.409,2.235-4.996,4.139-7.658,5.826c-5.336,3.383-11.347,6.002-17.771,7.236c-6.408,1.254-13.183,1.045-19.521-0.685
			c-6.349-1.714-12.223-4.871-17.205-8.983c-4.993-4.113-9.136-9.164-12.251-14.78c-3.111-5.613-5.206-11.834-6.006-18.252
			c-0.778-6.293-0.596-12.746,0.769-19.018c1.337-6.269,3.852-12.276,7.226-17.648c3.373-5.383,7.563-10.146,12.187-14.282
			c9.292-8.278,20.137-14.164,31.266-18.672c1.365-0.548,2.865-1.132,4.204-1.621c1.382-0.521,2.957-1.058,4.452-1.494
			c3.036-0.895,6.132-1.543,9.243-1.973c6.227-0.859,12.498-0.824,18.624-0.139c12.275,1.396,23.95,5.26,34.837,10.423
			c10.885,5.211,21.07,11.725,30.306,19.575c4.604,3.96,8.974,8.209,12.859,13.255c3.912,5.095,6.85,11.094,8.403,17.401
			c1.571,6.313,1.819,12.933,0.711,19.354c-0.551,3.213-1.464,6.369-2.681,9.439c-1.202,3.07-2.768,6.088-4.984,8.695
			c-2.215,2.596-4.897,4.885-7.997,6.598c-0.773,0.428-1.577,0.81-2.397,1.158l-0.672,0.268c-0.229,0.089-0.469,0.183-0.619,0.227
			l-0.52,0.169c-0.021,0.007-0.256,0.092-0.229,0.078l-0.152,0.045l-0.304,0.09c-1.623,0.475-3.319,0.824-5.068,0.975
			c-3.48,0.333-7.228-0.24-10.417-1.837c-3.212-1.572-5.751-4.021-7.604-6.7c-1.868-2.69-3.161-5.614-3.997-8.639
			c-0.413-1.535-0.714-3.014-0.84-4.715c-0.088-1.801,0.327-3.454,0.905-4.935c1.217-2.955,3.051-5.367,5.002-7.594
			C1632.811,378.042,1634.962,376.034,1637.261,374.234z"/>
	</g>
	<path fill="none" stroke="#FFFFFF" stroke-width="12" stroke-miterlimit="10" d="M1545.011,287.234
		c4,13.75,7.929,27.813,12.5,39.75"/>
	<path fill="none" stroke="#FFFFFF" stroke-width="12" stroke-miterlimit="10" d="M1912.595,396.233
		c-2.834,8.751-2.834,10.251-7.334,20.751"/>
	<g>
		<path fill="#FFFFFF" d="M1509.261,457.567c3.549-4.244,8.539-7.661,14.439-8.636c1.466-0.233,2.974-0.296,4.484-0.189
			c1.527,0.135,2.979,0.35,4.55,0.942c2.954,1.135,5.493,2.956,7.634,5.285c2.121,2.32,3.814,5.324,4.31,8.8
			c0.246,1.724,0.179,3.526-0.194,5.246c-0.369,1.722-1.032,3.349-1.859,4.821c-0.816,1.479-1.864,2.823-2.793,3.945
			c-0.957,1.158-1.968,2.275-3.034,3.349c-2.136,2.141-4.48,4.14-7.121,5.836c-2.639,1.699-5.662,2.902-8.849,3.631
			c-3.179,0.743-6.561,1.015-9.886,0.604c-3.325-0.398-6.537-1.46-9.412-2.951c-2.885-1.49-5.447-3.386-7.729-5.465
			c-2.285-2.083-4.302-4.353-6.127-6.712c-1.794-2.308-3.567-4.945-4.946-7.725c-2.82-5.56-4.292-12.063-3.74-18.474
			c0.518-6.413,2.949-12.549,6.651-17.638c3.711-5.089,8.638-9.291,14.569-11.897c2.966-1.288,6.21-2.162,9.636-2.314
			c1.71-0.077,3.461,0.038,5.195,0.373l2.043,0.425l1.969,0.368c5.351,0.938,11.011,1.819,16.614,3.221
			c5.61,1.392,11.243,3.263,16.59,6.038c5.332,2.763,10.37,6.5,14.384,11.237c4.037,4.713,6.949,10.332,8.716,16.13
			c1.783,5.812,2.512,11.782,2.619,17.643c0.051,2.934-0.058,5.85-0.283,8.74c-0.241,2.916-0.544,5.694-1.047,8.665
			c-0.997,5.834-2.8,11.678-5.66,17.066c-2.839,5.396-6.746,10.224-11.171,14.23c-4.424,4.029-9.29,7.304-14.156,10.252
			c-9.754,5.864-19.593,10.666-28.006,17.045c-4.206,3.166-8.042,6.692-11.334,10.656c-3.299,3.957-6.046,8.346-8.227,13.047
			c-4.377,9.414-6.493,19.953-7.329,30.623c-0.192,2.653-0.372,5.435-0.354,7.89c0.032,2.463,0.325,4.855,0.953,7.024
			c0.634,2.161,1.586,4.102,2.938,5.571c1.363,1.468,3.025,2.455,4.895,3.291c3.779,1.687,8.847,1.57,13.452,0.015
			c4.632-1.541,8.943-4.491,11.817-8.503c1.426-2.01,2.445-4.309,2.893-6.767c0.218-1.214,0.325-2.537,0.235-3.692
			c-0.101-1.171-0.446-2.277-1.09-3.24c-1.272-1.965-3.781-3.174-6.38-3.779c-2.628-0.614-5.416-0.765-8.19-0.691
			c2.729-0.523,5.535-0.826,8.394-0.589c1.426,0.122,2.871,0.383,4.281,0.911c1.405,0.523,2.788,1.354,3.883,2.562
			c1.1,1.201,1.823,2.748,2.179,4.307c0.343,1.585,0.409,3.059,0.357,4.6c-0.124,3.062-0.991,6.114-2.416,8.856
			c-1.419,2.751-3.369,5.204-5.644,7.28c-2.273,2.082-4.858,3.817-7.664,5.164c-2.807,1.344-5.842,2.309-9.054,2.74
			c-3.203,0.427-6.617,0.313-9.986-0.664c-1.676-0.498-3.318-1.246-4.808-2.25c-1.491-1.001-2.816-2.245-3.971-3.591
			c-2.306-2.713-3.862-5.865-4.764-9.02c-0.913-3.163-1.265-6.328-1.31-9.403c-0.018-3.089,0.177-5.847,0.381-8.721
			c0.898-11.388,3.153-22.967,8.141-33.718c2.482-5.356,5.665-10.447,9.469-15.009c3.795-4.57,8.186-8.589,12.836-12.087
			c9.316-7.032,19.54-11.983,28.762-17.557c4.609-2.79,8.976-5.759,12.756-9.206c3.786-3.436,6.946-7.367,9.28-11.791
			c2.343-4.416,3.872-9.295,4.743-14.381c0.427-2.495,0.731-5.233,0.943-7.842c0.206-2.636,0.303-5.268,0.257-7.877
			c-0.093-5.213-0.748-10.357-2.223-15.156c-1.468-4.797-3.783-9.219-6.965-12.94c-3.167-3.735-7.186-6.752-11.684-9.087
			c-4.504-2.34-9.462-4.014-14.604-5.288c-5.158-1.291-10.467-2.124-16.034-3.097l-2.119-0.396l-2.028-0.422
			c-0.987-0.189-2.021-0.264-3.08-0.215c-2.119,0.09-4.327,0.655-6.439,1.576c-4.239,1.847-8.072,5.062-10.873,8.927
			c-2.814,3.871-4.593,8.435-4.968,13.092c-0.392,4.661,0.637,9.387,2.818,13.708c1.093,2.188,2.416,4.181,4.02,6.25
			c1.564,2.024,3.251,3.91,5.065,5.562c3.617,3.318,7.798,5.628,12.169,6.136c2.182,0.266,4.42,0.119,6.619-0.476
			c2.199-0.604,4.317-1.617,6.475-2.692c2.157-1.084,4.278-2.421,6.265-3.985c0.995-0.779,1.96-1.61,2.888-2.484
			c0.957-0.906,1.723-1.677,2.371-2.557c1.307-1.741,2.041-3.669,2.021-5.743c-0.021-2.068-0.813-4.283-2.157-6.268
			c-1.341-1.975-3.213-3.758-5.313-4.917c-0.96-0.549-2.241-0.954-3.45-1.226c-1.236-0.266-2.518-0.392-3.812-0.373
			c-2.592,0.016-5.233,0.61-7.719,1.669C1513.73,454.278,1511.391,455.778,1509.261,457.567z"/>
	</g>
	<path fill="none" stroke="#FFFFFF" stroke-width="12" stroke-miterlimit="10" d="M1497.261,602.233c0,0-18,4.666-32,0"/>
	<path fill="none" stroke="#FFFFFF" stroke-width="12" stroke-miterlimit="10" d="M1555.151,503.254
		c6.751,5.103,11.539,8.478,18.604,11.618"/>
	<path fill="none" stroke="#FFFFFF" stroke-width="12" stroke-miterlimit="10" d="M1494.595,452.9
		c-11.334,1.334-24.334,2.418-32.584,2.334"/>
	<g>
		<path fill="#FFFFFF" d="M1512.337,685.996c1.568,2.566,2.367,5.674,2.279,8.81c-0.081,3.14-0.987,6.28-2.503,9.106
			c-1.512,2.836-3.623,5.375-6.133,7.474c-1.255,1.051-2.611,1.993-4.043,2.815c-0.368,0.211-0.698,0.396-1.111,0.604l-0.504,0.26
			l-0.606,0.282c-0.788,0.354-1.585,0.667-2.431,0.934c-1.68,0.531-3.523,0.858-5.448,0.813c-1.921-0.039-3.899-0.475-5.698-1.255
			c-3.634-1.585-6.354-4.29-8.459-7.036c-2.116-2.781-3.713-5.725-5.097-8.686c-1.373-2.965-2.51-5.966-3.522-8.974l11.643-2.91
			c0.896,5.572,2.176,11.114,4.501,15.632c1.166,2.234,2.607,4.129,4.341,5.292c1.715,1.166,3.867,1.634,6.351,1.287
			c0.611-0.082,1.247-0.213,1.866-0.372l0.442-0.117l0.534-0.171c0.276-0.082,0.629-0.207,0.937-0.32
			c1.27-0.468,2.507-1.048,3.688-1.739c2.363-1.38,4.51-3.209,6.222-5.427c1.713-2.212,2.986-4.823,3.539-7.648
			C1513.68,691.831,1513.458,688.793,1512.337,685.996z"/>
	</g>

		<line fill="none" stroke="#FFFFFF" stroke-width="12" stroke-miterlimit="10" x1="1489.261" y1="255.234" x2="1459.261" y2="250.234"/>

		<line fill="none" stroke="#FFFFFF" stroke-width="12" stroke-miterlimit="10" x1="1537.261" y1="405.234" x2="1529.261" y2="438.234"/>
	<ellipse fill="none" stroke="#FFFFFF" stroke-width="6" stroke-miterlimit="10" cx="1796.261" cy="540.234" rx="228" ry="148"/>
	<path fill="#FFFFFF" d="M1498.928,175.568c0,0,71.332-75.667,83.666-86s32.334-24,32.334-24s2.666-16.333,21.333-22s14-18,14-20
		c0,0,8.333,17.667-4,30.333s-21.333,16.333-26.333,18c0,0-22,23.333-25.667,27.333S1558.595,128.568,1498.928,175.568z"/>
	<path fill="#FFFFFF" d="M1549.324,663.359c0,0,169.438,47.375,229.438,75.375s91.5,37.668,141.5,55.168s79.5,27.416,98.5,31.332
		c1.635,0.337,4.832,0.342,6.333-1.416c6.334-7.417,10.334-16.25,10.792-28.834c0.109-3.001-1.375-5.25-3.125-5.75
		c-2.66-0.76-83.619-28.412-93.25-31.25c-80.584-23.749-99.25-26.416-151.25-39.375c-100.893-25.144-190.396-55.208-233.063-73.375
		c0,0,0.875-4.5-1.438-5.833c-3.035-1.75-5.921,1.528-9.5,11.896c-4.25,12.313-1.625,14.875,0.167,15.104
		C1546.735,666.696,1547.949,665.672,1549.324,663.359z"/>
	<g>
		<polygon fill="#FFFFFF" points="1972.761,443.734 2336.761,446.234 1972.761,448.734 		"/>
	</g>
	<g>
		<path fill="#FFFFFF" d="M2003.889,445.368c3.337-10.697,6.904-21.255,10.655-31.781c3.759-10.517,7.714-20.969,11.995-31.306
			c4.3-10.328,8.867-20.57,14.267-30.476c2.723-4.941,5.63-9.813,9.155-14.392c1.779-2.277,3.701-4.497,6.069-6.447
			c1.189-0.967,2.5-1.871,4.04-2.554c0.771-0.337,1.602-0.615,2.491-0.778c0.889-0.176,1.869-0.178,2.637-0.115
			c3.4,0.257,6.342,1.742,8.793,3.509c2.465,1.788,4.534,3.902,6.41,6.109c3.731,4.44,6.737,9.276,9.496,14.199
			c5.468,9.878,9.908,20.171,14.077,30.537c8.262,20.766,15.288,41.922,22.304,63.054c7.01,21.132,13.822,42.322,21.514,63.176
			c3.875,10.409,7.938,20.764,12.794,30.718c2.448,4.958,5.085,9.844,8.291,14.297c1.61,2.21,3.371,4.324,5.427,6.044
			c2.035,1.7,4.49,2.999,7.033,2.799c2.562-0.181,4.986-1.563,7.089-3.231c2.119-1.689,3.998-3.711,5.742-5.836
			c3.478-4.273,6.44-8.981,9.195-13.79c5.478-9.652,10.108-19.785,14.433-30.026c4.308-10.254,8.258-20.661,11.987-31.145
			c3.718-10.489,7.239-21.05,10.478-31.699c-3.118,10.686-6.522,21.288-10.124,31.823c-3.613,10.531-7.449,20.989-11.647,31.308
			c-4.217,10.308-8.742,20.514-14.146,30.292c-2.72,4.873-5.652,9.656-9.154,14.063c-1.76,2.191-3.665,4.296-5.882,6.106
			c-2.202,1.774-4.809,3.366-7.858,3.631c-1.515,0.134-3.064-0.177-4.428-0.76c-1.375-0.579-2.605-1.395-3.728-2.303
			c-2.239-1.834-4.088-4.017-5.776-6.278c-3.354-4.552-6.075-9.473-8.609-14.459c-5.02-10.004-9.214-20.358-13.221-30.761
			c-7.951-20.836-15.007-41.968-22.251-63.012c-7.247-21.037-14.503-42.082-22.935-62.6c-4.248-10.232-8.768-20.373-14.195-29.92
			c-2.729-4.75-5.694-9.374-9.18-13.422c-1.744-2.01-3.632-3.871-5.695-5.329c-2.048-1.456-4.325-2.475-6.517-2.604
			c-0.618-0.037-1.04-0.029-1.52,0.07c-0.479,0.094-0.977,0.261-1.477,0.487c-1.003,0.456-2.009,1.143-2.964,1.942
			c-1.919,1.61-3.658,3.633-5.273,5.756c-3.225,4.282-5.998,9.026-8.587,13.858c-5.15,9.705-9.557,19.875-13.694,30.14
			c-4.122,10.278-7.932,20.697-11.548,31.184c-3.604,10.485-7.046,21.062-10.219,31.653L2003.889,445.368z"/>
	</g>
	<circle fill="none" stroke="#FFFFFF" stroke-width="5" stroke-miterlimit="10" cx="1881.928" cy="257.901" r="60"/>
	<circle fill="none" stroke="#FFFFFF" stroke-width="4" stroke-miterlimit="10" cx="1961.595" cy="199.901" r="21.667"/>
	<circle fill="none" stroke="#FFFFFF" stroke-width="3" stroke-miterlimit="10" cx="1970.928" cy="245.234" r="16.667"/>
	<circle fill="none" stroke="#FFFFFF" stroke-width="2" stroke-miterlimit="10" cx="2006.595" cy="229.901" r="9.333"/>
	<circle fill="none" stroke="#FFFFFF" stroke-width="1.5" stroke-miterlimit="10" cx="2013.928" cy="253.568" r="7.667"/>
	<circle fill="none" stroke="#FFFFFF" stroke-miterlimit="10" cx="2033.262" cy="241.568" r="4.667"/>
	<path fill="#FFFFFF" d="M1761.969,456.359c0,0,27.668-7.333,58.334-1c0,0,13.332-12.667,30.666-12.667
		c0,0,5.334,5.667,3.667,30.667c0,0,16.334,14.999,14.667,42.333s-21.917,51.042-57.042,51.917c0,0,11.041,2.751,10.708,32.417
		s-1,26,10,34.333c0,0-15.999,4.333-19.666-6s-1.174-32.31-2-39c-0.417-3.375-1.042-4.125-4.667-4.333c0,0-1.334,33.667,1.333,42
		s2.001,9.666,7.334,12.333c0,0-14.917,1.75-16.917-8.25s-2.749-34.083-3.083-45.083c0,0-2.667-5.667-4.667,0.333
		s1.375,33.375-0.75,43.125c-1.314,6.033-5.75,11.25-14.25,11.542c0,0,3.333-4.001,4.333-16.334s0.167-32.583,0.167-40.458
		c0,0-7-2.625-6.5,30.792c0.374,25.006-10.001,20-17.667,20c0,0,7.666-5.334,7-16.667s0-16.666,0-19.333c0,0-26.334,4-34-8
		s-6-22.668-19-23.334c0,0,8.667-7.332,18.667,6.334s24.667,16.666,34.667,10.333c0,0,4.458-13.208,10.458-16
		c0,0-55.233-10.979-57.125-51.667c-1.333-28.667,8.333-36.666,12.333-40.333c0,0-6-20.667,2-32
		C1730.969,444.359,1742.302,444.359,1761.969,456.359z"/>
	<path fill="none" stroke="#FFFFFF" stroke-width="2" stroke-miterlimit="10" d="M1864.928,534.068c0,0,18.666-3,56.666,3.167"/>
	<path fill="none" stroke="#FFFFFF" stroke-width="2" stroke-miterlimit="10" d="M1861.928,540.901c0,0,35.834,0.333,59.5,7.5"/>
	<path fill="none" stroke="#FFFFFF" stroke-width="2" stroke-miterlimit="10" d="M1721.094,534.568c0,0-38.333-0.833-53.833,4.167"
		/>
	<path fill="none" stroke="#FFFFFF" stroke-width="2" stroke-miterlimit="10" d="M1725.428,539.901c0,0-36.501-1.999-56.834,9.667"
		/>
	<g>
		<path fill="#FFFFFF" d="M857.261,318.234c1.307,0.98,3.095,1.156,5.116,0.81C857.396,317.325,854.689,316.305,857.261,318.234z"/>
		<path fill="#FFFFFF" d="M877.504,204.815c0.141,0.25,0.281,0.501,0.423,0.752c2.718,4.832,2.974,5.282,3.308,4.519
			C880.855,208.568,879.417,206.643,877.504,204.815z"/>
		<path fill="#FFFFFF" d="M861.927,189.568c-4.666,4.667-2,9.333,4.667,9.333c3.061,0,7.661,2.81,10.91,5.914
			C871.676,194.438,866.483,185.011,861.927,189.568z"/>
		<path fill="#FFFFFF" d="M933.594,137.568c1.333-6.667-13.667-11.333-9.667-9.333s-4,4,2.667,8c0,0-6.001,13.333-6.667,5.333
			s-3.334-12-12-12s-5.999,3.333-2.666,4s16.667,10,0,8.667s-11.334-8-11.334-8s-11.335,2.667-7.333,11.333
			c2.371,5.136,2.001,5.333,12.667,4.667s-2.668,13.333-9.334,5.333s-7.332-15.333-12.666-8.667s1.333,10,3.333,10.667
			s4.667,0.667,8.667,5.333s32.666,2,24.666,6s-21.334,14.667-26,8s-11.332-21.333-12.666-15.333s2,10,2,10
			s-6.001-0.667-7.334-5.333s-9.333-6-9.333,0s4,6,10,6s11.333,5.334,6,6.667s0,8.667,6,8s4,16.667,10,12s4.001,10.667-5.333,8.667
			c-5.105-1.094-5.623,1.597-6.026,2.519c0.382,1.522-0.294,2.634-2.641,2.815c-8.667,0.667-10,4,4,6.667s8.666,12.667,11.333,6.667
			s7.334-3.333,3.334,4.667s-31.333,9.333-30,3.333s-1.334-16.667-5.334-12s-16.666-10.667-12.666-4s10.666,14.667,14.666,14.667
			c2.303,0,1.735,4.198,2.237,7.633c-4.841-2.159-10.903-4.3-10.903-4.3s-18.667-9.333-16.667-4
			c1.131,3.016,2.475,6.669,4.634,8.794c-6.604,0.302-14.443,1.42-9.967,2.54c8,2-6.666,11.333,6,10s37.333-4,43.333-2
			s13.333,6.667,9.333,6.667s-13.999,8.667-18.666,0.667s-21.334,7.333-21.334,7.333s-19.334,6-20,0s-10.666-9.333-9.333-3.333
			s19.333,16,22,15.333s-8,6.667-16,1.333s-8.667-14.667-12-7.333s1.333,16.667,14,14.667s2.667,2.667-9.333,2
			s-18.668-1.333-9.334,6s9.334,20,24.667,9.333s26.667-14,26.667-10s0.666,7.333,11.333,9.333s10.667,1.333,6,5.333
			c-3.523,3.02-11.985,9.077-18.217,10.143c5.347,1.846,13.314,4.5,20.217,5.19c13.333,1.333,0.001,3.333-7.333,7.333
			s-24.001,4-27.334,0.667s-5.333-10.666-7.333-5.333s-18.667,4.667-14,6s-19.334-3.334-12.667-8.667s-15.333-12-10.667-2
			s20,12,10,15.333c-10,3.333-11.334,8.667-4.667,10s-8.667,3.333-8,8.667s-4.667-0.667,0.667,5.333s25.333,10.667,14.667,13.333
			c-10.667,2.667-19.999,11.333-2.666,11.333s38.666-18.666,44.666-27.333s22-18,16-6.667c-4.036,7.623,14.247,3.182,23.202,0.471
			c-5.852,3.399,4.798,8.196,4.798,8.196s-28.666-2-35.333,1.333s-11.999,6-9.333,8s-13.334,14-18.667,13.333
			s-11.334-1.333-12.667,3.333s-37.999,17.333-24,16s1.333,14.666-7.333,11.333s7.333-35.333-3.333-32s-26.666,10.667-19.333,13.333
			s13.333,8.667,2.667,10.667s-12,5.333-6,6s21.333,2,15.333,4.667s-14,7.333-2.667,7.333s4.667,4.667-0.667,4.667
			s-18.667,6.667-10,6.667s30.667-4.667,38.667-14s17.332-7.333,8.666,2s-32.667,25.333-18.667,21.333s20.667-4,5.333,0.667
			c-15.333,4.667-10.666,2.667,2.667,10s-1.334,5.333-14,8.667s-28.666,14-13.333,16s13.333,7.333,29.333-2s30-2.667,21.333,3.333
			s-47.333,2.667-46,7.333s6.667,12,13.333,12s10.667,9.333,28.667,2.667s9.334-2.667,2.667,6s-36-11.333-37.333,4.667
			s8,20,22.667,17.333s43.333-38.667,38-25.333c-4.654,11.636-17.936,26.823-14.153,29.616c-9.419,0.269-30.225,1.66-26.514,3.051
			c5.334,2-20,8-9.333,10s38.001-6.001,26.667,3.333s-36.668,16.666-38.668,9.333s-38.666,5.333-21.333,16
			c9.735,5.991,24.308,10.93,34.268,12.691c-2.237,2.218-5.064,4.706-8.935,6.642c-12,6-20-7.999-20-0.666s12,11.999,20,10.666
			s20.668,6,11.334,10.667s2.666,9.334,12.666,8.667s12.001-5.334,15.334-21.334s15.333-20.666,13.333-8.666
			c-1.594,9.562-12.063,28.42-11.873,34.009c-5.313,0.412-13.411,1.876-11.46,2.657c3.333,1.334-4,13.333,5.333,12
			s21.333,5.334,11.333,12.667s-10,9.333,2,8s7.333-10,12-16s22.666-13.334,12-0.667s-17.332,25.334-12.666,26.667
			s8.667,9.334,14-3.333s3.333-20,5.333-12.667s-8.667,17.334,7.333,14.667s10.001-12,9.334-16s6.666-14.667,7.333-2.667
			s-2.666,24.667,6.667,16.667s-2.002,71.332-1.335,98.666s-60,20.001-96,21.334c0,0,105.001,0.666,128.334-0.667L933.594,137.568z
			 M905.011,242.234c1.795,0,3.25,0.896,3.25,2s-1.455,2-3.25,2s-3.25-0.896-3.25-2S903.216,242.234,905.011,242.234z
			 M882.261,275.734c0,0,18-5,15,15.5C897.261,291.234,892.761,280.734,882.261,275.734z M895.261,465.234
			c1.933,0,3.5,1.903,3.5,4.25s-1.567,4.25-3.5,4.25s-3.5-1.903-3.5-4.25S893.329,465.234,895.261,465.234z M859.761,517.734
			c0,0-3-3,9-8c5.577-2.324,5.5,2.5,5.5,2.5S862.261,513.234,859.761,517.734z M868.591,444.229c-12.667-3.333,0-6.667,0-6.667
			c-8-2.667,1.333-9.333,1.333-9.333c4.666,0,16.667,10,16.667,10C887.258,449.563,881.258,447.563,868.591,444.229z
			 M893.761,572.234c-1.381,0-2.5-0.896-2.5-2s1.119-2,2.5-2s2.5,0.896,2.5,2S895.142,572.234,893.761,572.234z M896.591,504.896
			c-5.333,1.333-17.928-15.106-8.667-11.333C905.924,500.896,896.591,504.896,896.591,504.896z M899.261,578.484
			c0-1.519,0.672-2.75,1.5-2.75s1.5,1.231,1.5,2.75s-0.672,2.75-1.5,2.75S899.261,580.003,899.261,578.484z M901.761,596.234
			c-0.553,0-1-2.015-1-4.5s0.447-4.5,1-4.5s1,2.015,1,4.5S902.314,596.234,901.761,596.234z M897.261,265.234l10-1l1.5,14.5
			C908.761,278.734,904.261,270.234,897.261,265.234z"/>
	</g>
	<path fill="#FFFFFF" d="M892.595,207.901c0,0-87-80.667-126.334-115.333l5-9.333l-55.333-51.333l-19.333,24l55.333,49.333l7-5.667
		c0,0,110.281,84.704,122.307,111.519S892.595,207.901,892.595,207.901z M720.928,72.901l-6.667-6.333l5.419-6.618l6.761,6.268
		L720.928,72.901z M730.595,61.234l-6.667-6l5-6.667l7.022,6.029L730.595,61.234z"/>
	<path fill="none" stroke="#FFFFFF" stroke-width="6" stroke-miterlimit="10" d="M675.928,155.901c0,0,0.333-13.334,18.333-10.667
		s49,18.333,46.333,33s-4.333,23-19,26.333s-44.333-14.333-46.333-23.667S674.594,163.235,675.928,155.901z"/>
	<path fill="none" stroke="#FFFFFF" stroke-width="4" stroke-miterlimit="10" d="M675.928,160.234c0,0,22.667,0.333,26.333,12.333
		s34.333,7.667,34,17.667"/>
	<path fill="none" stroke="#FFFFFF" stroke-width="4" stroke-miterlimit="10" d="M774.036,172.065c0,0,2.673-6.781,12.725-1.597
		c10.052,5.185,25.305,19.803,21.018,26.774c-4.289,6.971-6.813,10.899-16.026,9.505c-9.214-1.396-23.314-16.758-22.752-21.978
		C769.563,179.55,771.893,175.551,774.036,172.065z"/>
	<path fill="none" stroke="#FFFFFF" stroke-width="2" stroke-miterlimit="10" d="M773.231,174.292c0,0,13.22,4.974,13.139,11.917
		c-0.081,6.943,18.694,11.214,16.64,16.282"/>
	<g>
		<polygon fill="#FFFFFF" points="489.78,450.862 30.392,447.362 489.78,443.862 		"/>
	</g>
	<circle stroke="#FFFFFF" stroke-width="3" stroke-miterlimit="10" cx="379.261" cy="447.234" r="4.5"/>
	<circle stroke="#FFFFFF" stroke-width="3" stroke-miterlimit="10" cx="410.261" cy="447.234" r="4.5"/>
	<circle fill="none" stroke="#FFFFFF" stroke-width="3" stroke-miterlimit="10" cx="395.261" cy="488.234" r="4.5"/>

		<line fill="none" stroke="#FFFFFF" stroke-width="3" stroke-miterlimit="10" x1="387.511" y1="446.484" x2="395.261" y2="483.734"/>

		<line fill="none" stroke="#FFFFFF" stroke-width="3" stroke-miterlimit="10" x1="395.261" y1="492.734" x2="395.261" y2="583.734"/>

		<line fill="none" stroke="#FFFFFF" stroke-width="3" stroke-miterlimit="10" x1="395.261" y1="599.734" x2="395.261" y2="642.984"/>

		<line fill="none" stroke="#FFFFFF" stroke-width="3" stroke-miterlimit="10" x1="364.761" y1="583.234" x2="425.761" y2="583.234"/>

		<line fill="none" stroke="#FFFFFF" stroke-width="3" stroke-miterlimit="10" x1="364.761" y1="600.234" x2="425.761" y2="600.234"/>
	<ellipse fill="#FFFFFF" cx="629.511" cy="553.232" rx="98.202" ry="63.75"/>

		<line fill="none" stroke="#FFFFFF" stroke-width="3" stroke-miterlimit="10" x1="214.261" y1="446.484" x2="214.261" y2="582.734"/>

		<line fill="none" stroke="#FFFFFF" stroke-width="3" stroke-miterlimit="10" x1="214.261" y1="598.734" x2="214.261" y2="641.984"/>

		<line fill="none" stroke="#FFFFFF" stroke-width="3" stroke-miterlimit="10" x1="205.511" y1="582.234" x2="223.011" y2="582.234"/>

		<line fill="none" stroke="#FFFFFF" stroke-width="3" stroke-miterlimit="10" x1="183.761" y1="599.234" x2="244.761" y2="599.234"/>
	<ellipse cx="629.011" cy="552.734" rx="90.5" ry="58.75"/>
	<path fill="#FFFFFF" d="M639.261,444.984c-6.25-11.25-10.417-8.083-14.75,0c-6.764,12.615-45.75,100-57.917,176.583
		c-1.705,10.734,2.638,10.465,8.667,0.417c9-15,32.986-47.236,41-55.25c9.5-9.5,25.181-28.923,44.25-2.75
		c12.75,17.5,23,44.25,25.5,53.75c4.074,15.48,11.75,14,8.75-0.75C690.07,593.919,653.602,470.798,639.261,444.984z"/>
	<path fill="#FFFFFF" d="M344.036,838.854l24.287-4.394l333.461-147.649l11.998,20.763l2.021-1.89l-10.379-23.916l69.203-33.729
		c1.899,1.742,5.403,3.985,5.403,3.985l10.742-5.063c2.087-3.846,0.893-8.248,0.893-8.248l4.163-2.077l-3.782-8.246l-4.29,1.801
		c0,0-2.558-3.777-6.833-4.704l-10.846,4.836c0,0-0.586,4.12-0.505,6.695l-70.712,30.439l-11.354-23.468l-2.75,0.299l7.908,22.639
		L363.211,823.314L344.036,838.854z"/>
	<path fill="#FFFFFF" stroke="#FFFFFF" stroke-miterlimit="10" d="M1692.594,799.901l-158-84.667l-8.666,17.334l158,84.666l34,6.667
		L1692.594,799.901z M1706.012,814.067l10.416,9.334l-13.416-3.084C1702.679,815.65,1706.012,814.067,1706.012,814.067z"/>
</g>
<g id="Layer_7">
	<g>
		<path stroke="#FFFFFF" stroke-width="4" stroke-miterlimit="10" d="M640.773,819.609"/>
		<circle fill="none" stroke="#FFFFFF" stroke-width="2" stroke-miterlimit="10" cx="790.635" cy="701.91" r="15.709"/>
		<circle fill="none" stroke="#FFFFFF" stroke-width="2" stroke-miterlimit="10" cx="790.635" cy="701.91" r="20.845"/>
		<circle fill="none" stroke="#FFFFFF" stroke-width="3" stroke-miterlimit="10" cx="790.635" cy="701.91" r="27.331"/>
		<circle fill="none" stroke="#FFFFFF" stroke-width="2" stroke-miterlimit="10" cx="686.277" cy="783.899" r="6.789"/>
		<circle fill="none" stroke="#FFFFFF" stroke-width="2" stroke-miterlimit="10" cx="686.277" cy="783.898" r="12.195"/>
		<path fill="none" stroke="#FFFFFF" stroke-width="4" stroke-miterlimit="10" d="M818.173,680.083
			c10.519,13.391,6.45,22.623,6.45,22.623s4.508,5.738,6.354,8.089c1.848,2.351-2.912,5.019-2.912,5.019
			s-32.803,26.114-36.203,28.786c-3.4,2.672-5.313-0.638-5.313-0.638l-7.273-9.259c-18.007,1.581-73.841,47.549-73.841,47.549
			s7.013,8.927,8.6,10.945c1.586,2.02,3.605,0.435,3.605,0.435s1.275-1.002,3.613-2.84c2.338-1.836,4.054-0.091,4.054-0.091
			l5.176,6.589l-56.536,44.417c-8.152-4.25-24.59-25.173-26.446-27.536c-1.856-2.362-18.295-23.285-20.496-32.212l56.537-44.419
			l5.176,6.589c0,0,1.291,2.081-1.047,3.918c-2.338,1.837-3.614,2.838-3.614,2.838s-2.019,1.586-0.433,3.605
			c1.586,2.019,8.6,10.946,8.6,10.946s57.876-43.367,63.673-60.489l-7.273-9.258c0,0-2.763-2.642,0.638-5.314
			c3.401-2.671,36.537-28.359,36.537-28.359s3.717-3.994,5.564-1.642c1.847,2.35,6.355,8.088,6.355,8.088
			S807.653,666.693,818.173,680.083z"/>
		<path fill="none" stroke="#FFFFFF" stroke-width="2" stroke-miterlimit="10" d="M682.874,834.694
			c-6.422-4.235-22.606-22.647-26.447-27.536s-17.899-24.972-20.495-32.213"/>
		<path fill="none" stroke="#FFFFFF" stroke-width="2" stroke-miterlimit="10" d="M687.975,830.688
			c-6.421-4.236-22.606-22.648-26.446-27.537c-3.841-4.889-17.9-24.971-20.496-32.213"/>
		<path fill="none" stroke="#FFFFFF" stroke-width="2" stroke-miterlimit="10" d="M693.076,826.68
			c-6.421-4.236-22.606-22.649-26.447-27.538c-3.84-4.888-17.899-24.97-20.495-32.211"/>
	</g>
</g>
<g id="Layer_8">
	<path fill="#FFFFFF" d="M1724.644,273.257c0,0-2.466-13.447-15.216-13.36c-11.791,0.078-15.975,12.279-15.975,12.279l-10.231-2.92
		c0,0,3.407-12.401-6.771-18.109c-8.863-4.976-19.966,2.641-19.966,2.641l-4.775-4.306c0,0,7.791-10.823,2.676-18.71
		c-6.703-10.327-20.264-6.702-20.264-6.702l-2.604-5.891c0,0,11.931-6.171,10.179-17.125c-1.69-10.642-15.626-13.308-15.626-13.308
		l0.392-6.345c0,0,13.666-0.418,16.428-11.233c2.711-10.624-8.409-18.746-8.409-18.746l2.85-5.647c0,0,13.238,4.854,19.652-3.32
		c6.257-7.974,0.4-20.367,0.4-20.367l6.109-4.714c0,0,9.456,9.909,20.366,5.22c9.403-4.043,8.122-17.909,8.122-17.909l7.565-1.473
		c0,0,3.974,13.238,15.451,13.421c11.26,0.157,17.465-11.189,17.465-11.189l8.549,1.891c0,0-2.23,13.073,7.722,18.615
		c9.77,5.447,19.086-3.189,19.086-3.189l4.715,4.34c0,0-7.957,12.271-1.29,20.75c6.318,8.044,19.373,4.724,19.373,4.724l2.058,5.77
		c0,0-10.694,6.832-8.559,17.752c1.848,9.474,14.171,12.776,14.171,12.776l-0.463,6.405c0,0-13.264-0.244-16.349,9.43
		c-3.765,11.8,8.297,20.419,8.297,20.419l-2.851,5.647c0,0-12.209-5.09-19.085,2.475c-8.228,9.047-0.967,21.247-0.967,21.247
		l-6.171,4.697c0,0-8.183-10.144-19.774-5.403c-10.589,4.331-8.636,17.953-8.636,17.953L1724.644,273.257z M1715.885,249.221
		c38.354-3.06,60.944-37.082,57.815-67.811c-3.233-31.749-31.705-56.839-61.223-55.924c-35.818,1.107-63.532,28.533-62.834,62.478
		C1650.506,229.691,1685.836,251.626,1715.885,249.221z M1719.755,244.297c0,0-1.621-8.854-10.014-8.802
		c-7.765,0.052-10.52,8.078-10.52,8.078l-6.736-1.926c0,0,2.239-8.166-4.453-11.922c-5.839-3.277-13.15,1.743-13.15,1.743
		l-3.146-2.832c0,0,5.133-7.13,1.761-12.314c-4.41-6.807-13.343-4.419-13.343-4.419l-1.717-3.878c0,0,7.853-4.062,6.702-11.277
		c-1.116-6.998-10.284-8.749-10.284-8.749l0.253-4.175c0,0,8.993-0.279,10.814-7.399c1.787-6.989-5.533-12.341-5.533-12.341
		l1.883-3.72c0,0,8.715,3.198,12.933-2.188c4.113-5.255,0.261-13.412,0.261-13.412l4.027-3.112c0,0,6.23,6.528,13.412,3.434
		c6.188-2.658,5.342-11.792,5.342-11.792l4.985-0.967c0,0,2.614,8.715,10.17,8.837c7.408,0.113,11.495-7.355,11.495-7.355
		l5.63,1.246c0,0-1.464,8.61,5.081,12.253c6.432,3.582,12.566-2.1,12.566-2.1l3.103,2.858c0,0-5.237,8.079-0.854,13.666
		c4.158,5.298,12.759,3.111,12.759,3.111l1.351,3.8c0,0-7.041,4.497-5.638,11.687c1.22,6.24,9.324,8.41,9.324,8.41l-0.305,4.218
		c0,0-8.732-0.165-10.771,6.205c-2.483,7.773,5.464,13.438,5.464,13.438l-1.873,3.722c0,0-8.035-3.347-12.567,1.63
		c-5.411,5.951-0.636,13.986-0.636,13.986l-4.062,3.094c0,0-5.386-6.675-13.02-3.555c-6.973,2.85-5.683,11.816-5.683,11.816
		L1719.755,244.297z M1713.986,228.471c25.256-2.014,40.132-24.42,38.066-44.646c-2.126-20.898-20.872-37.413-40.306-36.821
		c-23.583,0.732-41.832,18.79-41.37,41.143c0.566,27.479,23.827,41.919,43.618,40.333L1713.986,228.471z M1703.51,224.009
		c-3.816-2.205-3.26-8.75-6.841-11.313c-4.079-2.91-10.885,0.062-14.693-3.189c-0.95-0.811-1.281-2.239-1.359-3.485
		c-0.253-4.148,3.86-8.001,3.103-12.088c-0.828-4.471-7.016-6.658-7.914-11.121c-0.226-1.141,0.088-2.466,0.776-3.416
		c2.71-3.729,9.351-3.225,11.887-7.076c2.449-3.721-0.549-9.421,1.743-13.238c4.479-5.22,12.472,1.281,16.812,1.107
		c0.043,0,0.078-0.018,0.112-0.044c3.661-1.987,5.979-6.292,9.953-7.539c0.793-0.253,1.778-0.313,2.502,0.096
		c4.174,2.379,3.799,9.474,7.825,12.097c3.904,2.535,10.014-0.54,13.796,2.17c0.758,0.549,1.193,1.56,1.307,2.483
		c0.532,4.419-4.018,8.584-3.215,12.959c0.836,4.575,7.023,6.92,7.922,11.486c0.218,1.116-0.062,2.405-0.725,3.329
		c-2.579,3.617-8.889,3.233-11.39,6.902c-2.353,3.451-0.288,8.593-2.126,12.331c-0.576,1.177-1.403,2.511-2.659,2.885
		c-4.235,1.272-8.522-4.009-12.871-3.225c-4.584,0.828-7.042,6.58-11.504,7.922c-0.775,0.235-1.734,0.357-2.44-0.043V224.009z
		 M1713.306,205.996c6.048-0.706,10.894-3.591,14.04-9.734c2.135-4.263,2.475-8.994,0.976-13.518
		c-0.409-1.229-1.377-3.232-2.03-4.183c-3.007-4.419-7.539-7.208-12.697-7.835c-4.437-0.531-8.951,0.671-12.654,3.372
		c-1.481,1.177-2.667,2.293-3.678,3.678c-5.133,7.007-4.558,16.445,1.377,22.755C1702.343,204.47,1707.963,206.562,1713.306,205.996
		L1713.306,205.996z"/>
</g>
</svg>
